<?xml version="1.0" encoding="UTF-8"?>
<svg xmlns="http://www.w3.org/2000/svg" id="Layer_1" data-name="Layer 1" width="118" height="64" viewBox="0 0 118 64">
  <defs>
    <style>
      .cls-1 {
        stroke: #23009b;
        stroke-linejoin: round;
        stroke-width: 1.3px;
      }

      .cls-1, .cls-2 {
        fill: none;
      }

      .cls-2 {
        stroke-width: 0px;
      }
    </style>
  </defs>
  <g>
    <path class="cls-1" d="m33.4421633,30.0333574c1.3426184-13.17946,12.5063325-23.4969847,26.0342473-23.4969847,14.4297739,0,26.1696136,11.7390473,26.1696136,26.1688212s-11.7398397,26.1704059-26.1696136,26.1704059c-13.5279113,0-24.6916232-10.3189122-26.0342462-23.4985415"></path>
    <path class="cls-1" d="m41.6264482,29.9732027c1.320632-8.6645027,8.8221436-15.3234495,17.8499624-15.3234495,9.9563221,0,18.0562331,8.0991186,18.0562331,18.0554408s-8.099911,18.0570254-18.0562331,18.0570254c-9.0740385,0-16.6061013-6.7286212-17.8697594-15.4582351"></path>
    <path class="cls-1" d="m49.8761174,35.3038983c1.14235,4.231452,5.0076971,7.345065,9.6002675,7.345065,5.4914351,0,9.9431228-4.4516877,9.9431228-9.9431228s-4.4516877-9.9431228-9.9431228-9.9431228c-4.5437297,0-8.3756216,3.0477404-9.5629003,7.2104459"></path>
    <line class="cls-1" x1="59.4763848" y1="32.7058405" x2="14.3539759" y2="32.7058405"></line>
    <polyline class="cls-1" points="14.3539759 26.2801567 20.7796597 32.7058405 14.3539759 39.1315242"></polyline>
    <polyline class="cls-1" points="21.2834222 26.2801567 27.7091059 32.7058405 21.2834222 39.1315242"></polyline>
    <line class="cls-1" x1="45.1189074" y1="54.5730315" x2="39.8614674" y2="61.8939403"></line>
    <line class="cls-1" x1="74.5086986" y1="54.5730315" x2="79.7661386" y2="61.8939403"></line>
  </g>
  <rect class="cls-2" x="-.0385489" width="118" height="64"></rect>
</svg>
