<?xml version="1.0" encoding="UTF-8"?>
<svg xmlns="http://www.w3.org/2000/svg" id="Layer_1" data-name="Layer 1" width="118" height="64" viewBox="0 0 118 64">
  <defs>
    <style>
      .cls-1 {
        stroke: #23009b;
        stroke-linejoin: round;
        stroke-width: 1.3px;
      }

      .cls-1, .cls-2 {
        fill: none;
      }

      .cls-2 {
        stroke-width: 0px;
      }
    </style>
  </defs>
  <g>
    <path class="cls-1" d="m64.4613056,19.0184006V2.4905354h-10.3964681v16.3498302c-6.5024231,2.0857736-11.2102316,8.1789928-11.2102316,15.3741765,0,8.9168703,7.2284962,16.1453941,16.1453388,16.1453941,8.916898,0,16.1454494-7.2285238,16.1454494-16.1453941,0-6.9997046-4.4552974-12.9571583-10.6840885-15.1961415Z"></path>
    <g>
      <line class="cls-1" x1="59" y1="61.5094646" x2="59" y2="54.5120101"></line>
      <line class="cls-1" x1="39.4788997" y1="35.7444485" x2="33.2351041" y2="35.7444485"></line>
      <line class="cls-1" x1="84.7648959" y1="35.7444485" x2="78.5211003" y2="35.7444485"></line>
      <line class="cls-1" x1="45.5838255" y1="49.160563" x2="40.7814281" y2="53.9630204"></line>
      <line class="cls-1" x1="72.4162346" y1="49.160563" x2="77.2185719" y2="53.9630204"></line>
      <line class="cls-1" x1="49.0001683" y1="59.489452" x2="51.695902" y2="53.0880982"></line>
      <line class="cls-1" x1="35.2548163" y1="25.7443764" x2="40.7168906" y2="28.0446526"></line>
      <line class="cls-1" x1="82.7451837" y1="45.7440399" x2="76.715732" y2="43.2048427"></line>
      <line class="cls-1" x1="41.1858392" y1="43.0005339" x2="35.1386608" y2="45.4637764"></line>
      <line class="cls-1" x1="82.8613392" y1="26.0251207" x2="77.3634508" y2="28.2643446"></line>
      <line class="cls-1" x1="66.0958232" y1="53.1645338" x2="68.719448" y2="59.6057878"></line>
    </g>
    <circle class="cls-1" cx="58.8442138" cy="27.2079374" r="3.7547475"></circle>
    <rect class="cls-1" x="50.0051281" y="33.4429364" width="6.9242986" height="6.9242986"></rect>
    <polygon class="cls-1" points="64.5327226 32.3075908 59.7963353 40.5112542 69.2691099 40.5112542 64.5327226 32.3075908"></polygon>
  </g>
  <rect class="cls-2" x="0" y="0" width="118" height="64"></rect>
</svg>
