<?xml version="1.0" encoding="UTF-8"?>
<svg id="Layer_2" data-name="Layer 2" xmlns="http://www.w3.org/2000/svg" width="457.9860354" height="209.4648438" viewBox="0 0 457.9860354 209.4648438">
  <defs>
    <style>
      .cls-1 {
        fill: #fff;
        stroke-width: 0px;
      }
    </style>
  </defs>
  <g id="Layer_1-2" data-name="Layer 1">
    <g>
      <path class="cls-1" d="M34.5273438,35.6162109c3.2617188-6.3896484,11.2822266-11.8271484,22.0224609-11.8271484,16.3125,0,31.9453125,12.9150391,31.9453125,38.1992188,0,25.2851562-15.6328125,38.3359375-31.9453125,38.3359375-10.7402344,0-18.7607422-5.4375-22.0224609-11.8271484v10.0595703H7.3388672V0h27.1884766v35.6162109ZM59.4042969,61.9882812c0-10.3310547-4.8945312-17.9433594-12.6425781-17.9433594-7.6123047,0-13.1865234,6.9326172-13.1865234,17.9433594,0,11.0117188,5.5742188,18.0800781,13.1865234,18.0800781,7.7480469,0,12.6425781-7.7480469,12.6425781-18.0800781Z"/>
      <path class="cls-1" d="M118.0205078,100.3242188c-8.15625,0-15.0898438-2.1757812-19.1679688-7.2050781-3.6699219-4.3505859-5.5732422-11.1474609-5.5732422-23.2460938V25.4208984h27.1875v39.0146484c0,5.8457031.8164062,8.7001953,2.0390625,10.4677734,1.4960938,1.9033203,3.8066406,2.8544922,6.7978516,2.8544922,6.1171875,0,9.7871094-3.9423828,9.7871094-14.8173828V25.4208984h27.1884766v73.1357422h-27.1884766v-9.9238281c-4.078125,6.9335938-10.875,11.6914062-21.0703125,11.6914062Z"/>
      <path class="cls-1" d="M225.9814453,23.7890625c18.2158203,0,24.3330078,11.0117188,24.3330078,28.9560547v45.8115234h-27.1884766v-40.3740234c0-6.1171875-.8154297-12.6425781-8.8359375-12.6425781-6.6611328,0-11.0107422,4.078125-11.0107422,14.6816406v38.3349609h-27.1884766V25.4208984h27.1884766v9.515625c4.8935547-7.2050781,12.7783203-11.1474609,22.7021484-11.1474609Z"/>
      <path class="cls-1" d="M336.2558594,0v98.5566406h-27.1875v-10.0595703c-3.2626953,6.3896484-11.2832031,11.8271484-22.0224609,11.8271484-16.3134766,0-31.9462891-13.0507812-31.9462891-38.3359375,0-25.2841797,15.6328125-38.1992188,31.9462891-38.1992188,10.7392578,0,18.7597656,5.4375,22.0224609,11.8271484V0h27.1875ZM284.1904297,61.9882812c0,10.3320312,4.8945312,18.0800781,12.6425781,18.0800781,7.6132812,0,13.1865234-7.0683594,13.1865234-18.0800781,0-11.0107422-5.5732422-17.9433594-13.1865234-17.9433594-7.7480469,0-12.6425781,7.6123047-12.6425781,17.9433594Z"/>
      <path class="cls-1" d="M345.9599609,98.5566406V0h27.1884766v98.5566406h-27.1884766Z"/>
      <path class="cls-1" d="M418.15625,22.7021484c25.6933594,0,41.4619141,20.2548828,39.6953125,45.5400391h-52.7451172c.8154297,7.3408203,6.2529297,12.234375,14.6816406,12.234375,5.3017578,0,10.7392578-2.5830078,12.3701172-6.5253906h25.5566406c-3.3984375,10.7392578-15.3603516,26.5087891-38.3349609,26.5087891-25.828125,0-40.6464844-16.4492188-40.6464844-39.4228516,0-23.3818359,17.4003906-38.3349609,39.4228516-38.3349609ZM433.7900391,53.1523438c-.5439453-8.7001953-8.15625-11.8271484-13.8662109-11.8271484-5.8457031,0-12.5068359,3.1269531-14.4101562,11.8271484h28.2763672Z"/>
      <path class="cls-1" d="M37.3818359,209.4648438c-23.0576172,0-37.3818359-11.7714844-37.3818359-30.7207031,0-12.6943359,7.4189453-22.4365234,22.0615234-28.9863281-5.859375-7.8876953-8.6035156-14.8837891-8.6035156-21.8554688,0-15.2763672,13.7128906-25.1474609,34.9345703-25.1474609,13.75,0,21.8476562,4.671875,26.2207031,8.5917969,5.2783203,4.7324219,8.3066406,11.1630859,8.3066406,17.6425781,0,10.4355469-8.5224609,20.8583984-17.2226562,25.6630859l7.2949219,8.2070312c2.7626953-4.5742188,4.9355469-9.3857422,6.2050781-13.7734375l.4257812-1.4707031h30.1445312l-.6796875,2.5595703c-2.1103516,7.9462891-8.0029297,20.546875-18.2832031,32.6230469l22.3789062,24.8994141h-39.1757812l-5.7568359-6.2568359c-9.5439453,5.3261719-19.9208984,8.0244141-30.8691406,8.0244141ZM48.3925781,106.8291016c-18.7470703,0-30.8603516,8.2714844-30.8603516,21.0732422,0,6.7070312,2.8818359,13.3173828,9.3447266,21.4335938l1.703125,2.1386719-2.5371094,1.0205078c-14.5771484,5.8564453-21.96875,14.6884766-21.96875,26.2490234,0,16.6855469,12.4511719,26.6464844,33.3076172,26.6464844,10.7597656,0,20.9306641-2.7861328,30.2304688-8.28125l1.4189453-.8388672,6.7636719,7.3525391h28.25l-18.6845703-20.7880859,1.2001953-1.3603516c9.4599609-10.7207031,15.2382812-21.9560547,17.8242188-29.7851562h-21.7255859c-1.65625,5.0996094-4.3535156,10.6054688-7.6884766,15.6679688l-1.4599609,2.2167969-14.5234375-16.3388672,2.6113281-1.1074219c8.3291016-3.5341797,17.2470703-13.6748047,17.2470703-23.1386719,0-16.2587891-18.2119141-22.1601562-30.453125-22.1601562ZM43.4990234,189.2089844c-7.9228516,0-13.4560547-5.0302734-13.4560547-12.2324219,0-3.7792969,1.296875-9.1035156,7.4746094-13.0058594l1.4443359-.9121094,19.4931641,21.4130859-2.3037109,1.234375c-4.3378906,2.3242188-8.5957031,3.5029297-12.6523438,3.5029297ZM38.3115234,168.3964844c-2.7851562,2.2275391-4.1943359,5.1064453-4.1943359,8.5800781,0,6.0214844,5.0537109,8.1582031,9.3818359,8.1582031,2.65625,0,5.4550781-.6279297,8.3476562-1.8701172l-13.5351562-14.8681641ZM49.65625,142.7412109l-1.0742188-1.3173828c-4.171875-5.1132812-6.0322266-9.1582031-6.0322266-13.1142578,0-4.2402344,3.2978516-7.2021484,8.0185547-7.2021484,3.9277344,0,8.1542969,2.5947266,8.1542969,8.2900391,0,4.8339844-3.1875,10.1005859-7.578125,12.5224609l-1.4882812.8212891ZM50.5683594,125.1816406c-1.1855469,0-3.9443359.3046875-3.9443359,3.1279297,0,2.6113281,1.234375,5.4560547,3.9667969,9.0791016,2.5664062-2.1142578,4.0576172-5.5,4.0576172-7.9912109,0-3.8046875-2.8535156-4.2158203-4.0800781-4.2158203Z"/>
      <path class="cls-1" d="M143.5888672,151.1484375c-4.6220703,0-6.796875,1.4951172-6.796875,3.1259766,0,1.359375.8154297,3.3984375,5.7089844,4.2148438l9.5166016,1.7666016c15.9042969,2.9912109,27.3232422,7.6132812,27.3232422,21.4785156,0,16.9931641-13.59375,25.6933594-34.9365234,25.6933594-18.0800781,0-30.0429688-4.3505859-38.1992188-9.3798828l10.0595703-18.8964844c6.6611328,3.6708984,16.1767578,7.4775391,26.9160156,7.4775391,5.0302734,0,9.5166016-1.2236328,9.5166016-3.6708984s-2.5830078-3.3984375-8.4287109-4.4863281l-7.7490234-1.4951172c-15.3613281-2.71875-26.1005859-9.1074219-26.1005859-22.9736328,0-15.0898438,15.9052734-23.3818359,34.8007812-23.3818359,14.2744141,0,26.7802734,4.078125,32.8984375,7.3408203l-8.7001953,19.1669922c-6.6611328-2.71875-16.5849609-5.9804688-25.8291016-5.9804688Z"/>
      <path class="cls-1" d="M218.3808594,147.6132812c-6.796875,0-11.5546875,3.1269531-12.3701172,9.3798828h-23.3818359c1.2236328-13.8652344,13.4580078-27.0517578,37.6552734-27.0517578,20.9345703,0,35.8886719,7.8847656,35.6162109,32.3535156l-.1357422,14.0019531c-.1357422,8.5644531.2724609,21.4785156,1.359375,29.3632812h-25.2851562v-9.515625c-5.4375,8.0205078-14.5449219,11.2832031-24.8769531,11.2832031-14.2734375,0-26.1005859-8.8369141-26.1005859-21.8867188,0-16.9921875,17.5371094-24.1972656,48.3955078-26.2363281v-2.0390625c0-8.0205078-5.0302734-9.6523438-10.8759766-9.6523438ZM208.1855469,182.5498047c0,3.1269531,2.5830078,6.6611328,8.9726562,6.6611328,7.0683594,0,13.0498047-2.9902344,13.0498047-14.1376953v-2.1748047c-14.4091797.8154297-22.0224609,3.2626953-22.0224609,9.6513672Z"/>
      <path class="cls-1" d="M306.4804688,132.5244141h28.2763672l-24.6054688,73.1357422h-30.1787109l-25.2851562-73.1357422h29.0908203l11.6914062,46.0839844,11.0107422-46.0839844Z"/>
      <path class="cls-1" d="M369.2695312,129.8056641c25.6933594,0,41.4619141,20.2548828,39.6953125,45.5400391h-52.7451172c.8154297,7.3408203,6.2529297,12.234375,14.6816406,12.234375,5.3017578,0,10.7392578-2.5830078,12.3701172-6.5253906h25.5566406c-3.3984375,10.7392578-15.3603516,26.5087891-38.3349609,26.5087891-25.828125,0-40.6464844-16.4492188-40.6464844-39.4228516,0-23.3818359,17.4003906-38.3349609,39.4228516-38.3349609ZM384.9033203,160.2558594c-.5439453-8.7001953-8.15625-11.8271484-13.8662109-11.8271484-5.8457031,0-12.5068359,3.1269531-14.4101562,11.8271484h28.2763672Z"/>
    </g>
  </g>
</svg>