<svg xmlns="http://www.w3.org/2000/svg" id="Layer_2" data-name="Layer 2" viewBox="0 0 232 174"><defs><style> .cls-1, .cls-2 { fill: none; } .cls-3 { fill: #010101; } .cls-4 { fill: #0e61fe; } .cls-2 { stroke: #fff; stroke-linejoin: round; stroke-width: 2px; } </style></defs><g id="Layer_1-2" data-name="Layer 1"><g><g><g><path class="cls-3" d="M90.591676,45.250512c1.065369,2.50769,3.162979,4.524292,5.863434,5.450928,6.691872,2.295776,11.187996,8.593506,11.187996,15.671021v93.074951c0,2.06897-1.683121,3.752075-3.751976,3.752075h-41.671848c-2.068848,0-3.751972-1.683105-3.751972-3.752075v-93.074951c0-7.077515,4.496124-13.375244,11.188248-15.671143,2.700287-.926514,4.797844-2.943115,5.86319-5.450806h15.072929M93.618157,41.450463h-21.1259c0,2.564087-1.644325,4.824219-4.070076,5.656616-8.002274,2.745361-13.754875,10.331543-13.754875,19.265381v93.074951c0,4.171265,3.381176,7.552124,7.551975,7.552124h41.671848c4.170799,0,7.551979-3.380859,7.551979-7.552124v-93.074951c0-8.933838-5.752602-16.52002-13.754875-19.265381-2.425751-.832397-4.070076-3.092529-4.070076-5.656616h0Z"></path><rect class="cls-3" x="69.332061" y="24.686303" width="27.614777" height="13.071562" rx="3.238111" ry="3.238111" transform="translate(166.278899 62.444167) rotate(-180)"></rect></g><g><g><path class="cls-4" d="M134.311755,47.107083c2.425761-.832477,4.070122-3.092475,4.070122-5.656738h21.125855c0,2.564263,1.644361,4.824261,4.070122,5.656738,8.002256,2.745414,13.754846,10.331505,13.754846,19.265387v93.075001c0,4.171177-3.381131,7.552088-7.551942,7.552088h-41.671908c-4.170811,0-7.551941-3.380911-7.551941-7.552088v-93.075001c0-8.933882,5.75259-16.519973,13.754846-19.265387Z"></path><rect class="cls-4" x="135.221659" y="24.686281" width="27.614777" height="13.071562" rx="3.238111" ry="3.238111"></rect></g><g><line class="cls-2" x1="148.944806" y1="95.84292" x2="148.944806" y2="70.39032"></line><polyline class="cls-2" points="152.943787 82.910958 148.944806 86.90994 144.945824 82.910958"></polyline><polyline class="cls-2" points="154.502397 71.996773 148.944806 77.554364 143.387214 71.996773"></polyline><line class="cls-2" x1="148.944806" y1="95.84292" x2="166.942512" y2="77.845214"></line><polyline class="cls-2" points="160.91679 89.526349 155.261376 89.526349 155.261376 83.870935"></polyline><polyline class="cls-2" points="169.736388 82.910958 161.876767 82.910958 161.876767 75.051337"></polyline><line class="cls-2" x1="148.944806" y1="95.84292" x2="174.397405" y2="95.84292"></line><polyline class="cls-2" points="161.876767 99.841902 157.877785 95.84292 161.876767 91.843938"></polyline><polyline class="cls-2" points="172.790952 101.400511 167.233361 95.84292 172.790952 90.285328"></polyline><line class="cls-2" x1="148.944806" y1="95.84292" x2="166.942512" y2="113.840626"></line><polyline class="cls-2" points="155.261376 107.814904 155.261376 102.15949 160.91679 102.15949"></polyline><polyline class="cls-2" points="161.876767 116.634502 161.876767 108.774881 169.736388 108.774881"></polyline><line class="cls-2" x1="148.944806" y1="95.84292" x2="148.944806" y2="121.295519"></line><polyline class="cls-2" points="144.945824 108.774881 148.944805 104.775899 152.943787 108.774881"></polyline><polyline class="cls-2" points="143.387214 119.689066 148.944806 114.131475 154.502397 119.689066"></polyline><line class="cls-2" x1="148.944806" y1="95.84292" x2="130.9471" y2="113.840626"></line><polyline class="cls-2" points="136.972821 102.15949 142.628235 102.15949 142.628235 107.814904"></polyline><polyline class="cls-2" points="128.153223 108.774881 136.012844 108.774881 136.012844 116.634502"></polyline><line class="cls-2" x1="148.944806" y1="95.84292" x2="123.492206" y2="95.84292"></line><polyline class="cls-2" points="136.012844 91.843938 140.011826 95.842919 136.012844 99.841901"></polyline><polyline class="cls-2" points="125.098659 90.285328 130.65625 95.84292 125.098659 101.400511"></polyline><line class="cls-2" x1="148.944806" y1="95.84292" x2="130.9471" y2="77.845214"></line><polyline class="cls-2" points="142.628235 83.870935 142.628235 89.526349 136.972821 89.526349"></polyline><polyline class="cls-2" points="136.012844 75.051337 136.012844 82.910958 128.153223 82.910958"></polyline></g></g></g><rect class="cls-1" width="232" height="174"></rect></g></g></svg>