<svg xmlns="http://www.w3.org/2000/svg" id="Layer_2" data-name="Layer 2" viewBox="0 0 232 174"><defs><style> .cls-1, .cls-2, .cls-3 { fill: none; } .cls-4 { fill: #0e61fe; } .cls-2 { stroke-width: 3.8px; } .cls-2, .cls-3 { stroke: #000; stroke-miterlimit: 10; } .cls-3 { stroke-width: 3.6px; } </style></defs><g id="Layer_1-2" data-name="Layer 1"><g><g><path class="cls-2" d="M135.800003,119.799562l14.300003-47.300003c2.199997-.099998,4.100006-1.599998,4.800003-3.800003.800003-2.800003-.800003-5.800003-3.600006-6.599998-2.800003-.799999-5.800003.800003-6.600006,3.599998-.699997,2.199997.199997,4.599998,2,5.800003"></path><line class="cls-2" x1="80.900002" y1="119.799562" x2="151.100006" y2="119.799562"></line><path class="cls-2" d="M80.900002,155.299562c0,6.5,5.300003,11.699997,11.699997,11.699997h46.799995c6.5,0,11.699997-5.300003,11.699997-11.699997v-65.900002h-70.199997s0,65.900002.000008,65.900002Z"></path><line class="cls-2" x1="80.900002" y1="99.899568" x2="94.599998" y2="99.899568"></line><line class="cls-2" x1="80.900002" y1="109.799562" x2="94.599998" y2="109.799562"></line><path class="cls-4" d="M111.5,74.299562c0,2.900002,2.400002,5.199997,5.199997,5.199997s5.199997-2.400002,5.199997-5.199997c0-2.900002-5.300003-11.199997-5.300003-11.199997,0,0-5.099998,8.400002-5.099991,11.199997Z"></path><g><path class="cls-3" d="M65.599998,24.099565l39.299995,17.5c1.800003.799999,2.900002,2.599998,3,4.5l7.300003,3.200001-1.699997,3.799999-7.300003-3.200001c-1.400002,1.200001-3.5,1.599998-5.300003.799999l-39.299999-17.5"></path><path class="cls-3" d="M51.900002,17.699566l13.800003,6.199999,1.800003-4.1-.900002,1.9-6.799999,15.299999.700001-1.599998.900002-2.099998-13.799999-6.200001c-2.599998-1.200001-3.799999-4.299999-2.599998-6.9h0c1.200001-2.6,4.299999-3.799999,6.900002-2.6l-.000011.1Z"></path><line class="cls-3" x1="94.400002" y1="48.099565" x2="96.199997" y2="43.999567"></line><line class="cls-3" x1="86.699997" y1="44.699564" x2="88.5" y2="40.499567"></line><line class="cls-3" x1="78.900002" y1="41.199564" x2="80.800003" y2="37.099565"></line></g></g><rect class="cls-1" width="232" height="174"></rect></g></g></svg>