<svg xmlns="http://www.w3.org/2000/svg" id="Layer_2" data-name="Layer 2" viewBox="0 0 232 174"><defs><style> .cls-1, .cls-2, .cls-3 { fill: none; } .cls-4 { fill: #010101; } .cls-2 { stroke: #010101; } .cls-2, .cls-3 { stroke-miterlimit: 2; stroke-width: 3.8px; } .cls-3 { stroke: #0e61fe; } </style></defs><g id="Layer_1-2" data-name="Layer 1"><g><g><g><rect class="cls-4" x="88.1145" y="83.81906" width="5.266267" height="59.670348"></rect><path class="cls-3" d="M79.086614,95.87375s5.767816,2.96763,9.27866,1.107653c3.510844-1.859977,6.269365-4.116948,9.027886-4.116948s5.015492,2.36485,5.015492,2.36485"></path><polygon class="cls-2" points="102.408652 157.460771 79.086614 157.460771 79.086614 85.179205 79.086614 55.735458 79.086614 50.668205 102.408652 50.668205 102.408652 63.481712 102.408652 157.460771"></polygon><line class="cls-2" x1="102.408652" y1="83.81906" x2="79.086614" y2="83.81906"></line><line class="cls-2" x1="79.086614" y1="143.489408" x2="102.408652" y2="143.489408"></line></g><g><path class="cls-2" d="M147.575524,166.999559h-10.587423l-5.334061-109.458694c-.087377-1.793035,1.342818-3.294622,3.13798-3.294622h14.979583c1.795163,0,3.225357,1.501587,3.13798,3.294622l-5.334061,109.458694Z"></path><line class="cls-2" x1="135.380206" y1="128.46177" x2="149.183419" y2="128.46177"></line><g><polygon class="cls-4" points="142.281813 54.246244 132.325029 51.086203 135.48507 41.129419 142.281813 54.246244"></polygon><polygon class="cls-4" points="142.281813 54.246244 152.238597 51.086201 149.078554 41.129417 142.281813 54.246244"></polygon></g></g></g><rect class="cls-1" width="232" height="174"></rect><rect class="cls-1" width="232" height="174"></rect></g></g></svg>