<?xml version="1.0" encoding="UTF-8"?>
<svg xmlns="http://www.w3.org/2000/svg" width="105" height="41" viewBox="0 0 105 41" fill="none">
  <path fill-rule="evenodd" clip-rule="evenodd" d="M67.552 1.5754V16.0339C67.552 19.5738 68.3868 21.5433 72.3606 21.5433C76.3681 21.5433 77.0689 19.2733 77.0689 15.7003V1.5754H82.7791V15.2327C82.7791 22.6792 79.9075 26.2191 72.3606 26.2191C65.1149 26.2191 61.8424 23.4136 61.8424 15.4328V1.5754H67.552ZM49.8295 1.57517C56.107 1.57517 60.8159 3.04405 60.8159 9.0553C60.8159 12.5582 58.9217 14.5841 56.236 15.6691L56.074 15.7331L62.051 25.7844H55.3389L50.0964 16.6689H46.2234V25.7844H40.5133V6.48941L42.3198 1.57517H49.8295ZM41.2161 1.57506L39.3748 6.58327H33.0398V25.7842H27.2966V6.58327H20.9564L18.9904 1.57506H41.2161ZM49.9966 6.38382H46.2234V11.8602H49.9966C52.7017 11.8602 54.7716 11.392 54.7716 9.12201C54.7716 6.88447 52.7017 6.38382 49.9966 6.38382ZM103.016 1.57471L100.82 6.60265H89.8879V10.8602H99.7906V15.9218H89.8879V20.8157H102.194L104.341 25.7845H84.1557V1.57471H103.016ZM24.712 30.3909V28.6447H33.5937V30.3909H30.222V39.5586H28.0691V30.3909H24.712ZM43.0109 28.6446V30.3908H37.2149V33.1005H42.6948V34.8467H37.2149V37.8123H43.0109V39.5591H35.0627V28.6446H43.0109ZM47.2387 35.2835V39.559H45.0859V28.6445H48.6687C52.2667 28.6445 53.6369 29.6685 53.6369 31.9565C53.6369 33.2061 53.0197 34.2596 51.6645 34.8322L54.0882 39.559H51.6947L49.5267 35.2835H47.2387ZM47.2387 33.6127H49.0151C50.6858 33.6127 51.4237 33.0407 51.4237 31.9716C51.4237 30.7069 50.3697 30.3304 48.9095 30.3304H47.2387V33.6127ZM64.038 32.2576C64.038 35.0427 61.8098 35.7203 59.2961 35.7203H57.6549V39.559H55.5021V28.6445H59.2358C61.4791 28.6445 64.038 28.9607 64.038 32.2576ZM57.6549 34.049H59.4313C60.7714 34.049 61.8249 33.7177 61.8249 32.2726C61.8249 30.4812 60.4552 30.3304 59.281 30.3304H57.6549V34.049ZM73.2954 28.6446V30.3908H67.4993V33.1005H72.9792V34.8467H67.4993V37.8123H73.2954V39.5591H65.3471V28.6446H73.2954ZM77.4027 31.2339V39.5587H75.3705V28.6448H78.1702L82.5362 36.9696V28.6448H84.5684V39.5587H81.7682L77.4027 31.2339ZM94.6717 28.6446V30.3908H88.8757V33.1005H94.3555V34.8467H88.8757V37.8123H94.6717V39.5591H86.7234V28.6446H94.6717ZM95.9654 31.6103C95.9654 29.4122 98.2987 28.4486 100.316 28.4486C102.574 28.4486 104.501 29.7736 104.606 31.8662H102.529C102.364 30.5864 101.249 30.1652 100.226 30.1652C99.2321 30.1652 98.1183 30.5411 98.1183 31.5198C98.1183 32.2879 98.7657 32.7091 99.6388 32.875L101.069 33.1308C102.845 33.447 104.802 34.1542 104.802 36.4126C104.802 38.6554 102.574 39.7547 100.376 39.7547C97.6965 39.7547 95.9202 38.309 95.7247 35.9613H97.8021C98.0429 37.5566 99.1567 38.0381 100.452 38.0381C101.415 38.0381 102.635 37.6923 102.635 36.5176C102.635 35.5848 101.777 35.2384 100.617 35.0273L99.2321 34.7714C97.4558 34.4257 95.9654 33.5073 95.9654 31.6103Z" fill="#121212"/>
  <path fill-rule="evenodd" clip-rule="evenodd" d="M12.311 6.68966C11.6293 6.45587 11.167 5.82063 11.167 5.09954H5.22941C5.22941 5.82063 4.76705 6.45587 4.0854 6.68966C1.83626 7.46123 0.218872 9.59318 0.218872 12.1045V38.2653C0.218872 39.4377 1.1697 40.3879 2.34155 40.3879H14.0543C15.2267 40.3879 16.1769 39.4377 16.1769 38.2653V12.1045C16.1769 9.59318 14.5601 7.46123 12.311 6.68966ZM11.3458 4.06187H5.00275C4.61117 4.06187 4.29384 3.74454 4.29384 3.35238V1.09743C4.29384 0.705268 4.61117 0.387939 5.00275 0.387939H11.3458C11.7374 0.387939 12.0553 0.705268 12.0553 1.09743V3.35238C12.0553 3.74454 11.7374 4.06187 11.3458 4.06187Z" fill="#23009B"/>
</svg>