<?xml version="1.0" encoding="UTF-8"?>
<!-- Generator: Adobe Illustrator 27.8.1, SVG Export Plug-In . SVG Version: 6.00 Build 0)  -->
<svg xmlns="http://www.w3.org/2000/svg" xmlns:xlink="http://www.w3.org/1999/xlink" version="1.1" id="Layer_1" x="0px" y="0px" viewBox="0 0 64 64" style="enable-background:new 0 0 64 64;" xml:space="preserve">
<g id="Stacked_x5F_CMYK">
</g>
<g>
	<g>
		<g>
			<path d="M16.6147003,53.7086983l-0.2716999,0.3265991l-0.8852997-0.7361984l0.2291002-0.2757988     c0.4345999-0.5223007,0.3968992-0.9343987,0.0339003-1.2363014c-0.3626995-0.3016014-0.8386002-0.230999-1.2553005,0.2695999     l-1.5387001,1.8502998c-0.4223995,0.5079002-0.4049997,0.9888-0.0423002,1.2905998     c0.3632002,0.3017006,0.7748003,0.2639008,1.2094002-0.2585983l0.2293997-0.2756996l0.8852997,0.7361984l-0.2714996,0.3266029     c-0.8149996,0.9794998-1.7852001,1.0685005-2.7428999,0.2719994c-0.9651003-0.8026009-1.0432997-1.8741989-0.1864996-2.9047012     l1.4847002-1.7849007c0.8570004-1.0303993,1.9684-1.1124992,2.9191008-0.3219986     C17.3761997,51.7890015,17.4535007,52.7000999,16.6147003,53.7086983z"></path>
		</g>
		<g>
			<path d="M21.743,54.5457001L21.2182007,55.507l-1.8642006-1.0172997l-0.7008991,1.2843018l1.4501991,0.7913017     l-0.5065994,0.9281998l-1.4501991-0.7913017l-0.7549992,1.3839989l1.8726006,1.0219002l-0.5241032,0.9612007l-2.9090996-1.587101     l3.0114002-5.519001L21.743,54.5457001z"></path>
		</g>
		<g>
			<path d="M22.0764008,61.3636017l-1.1518993-0.365799l1.9027004-5.9925995l1.9258003,0.6114006     c1.0524998,0.3344994,1.4428997,1.1319008,1.1459007,2.0677986l-0.2084999,0.6567993     c-0.2057991,0.6478996-0.6476994,1.0423012-1.2471008,1.1194l0.1884003,2.7144012l-1.1968994-0.3801003l-0.1583004-2.5265999     l-0.4859009-0.1542015L22.0764008,61.3636017z M23.0848999,58.1874008l0.5400009,0.171299     c0.5035992,0.1599007,0.8022003-0.032299,0.9396-0.4641991l0.1574001-0.4948997     c0.1397991-0.4408989,0.0065002-0.770401-0.4971008-0.9305l-0.5400009-0.1713982L23.0848999,58.1874008z"></path>
		</g>
		<g>
			<path d="M30.9540005,56.7596016L30.8202,57.8652l-1.2929993-0.1567993l-0.6228008,5.1347008l-1.1993999-0.1455002     l0.6228008-5.1347008l-1.3024998-0.1579018l0.1341-1.1057014L30.9540005,56.7596016z"></path>
		</g>
		<g>
			<path d="M33.3959007,56.6776009l0.1971016,6.2844009L32.3852005,63l-0.1971016-6.2845001L33.3959007,56.6776009z"></path>
		</g>
		<g>
			<path d="M38.1749001,55.9925003l0.1963005,1.0772018l-2.0340996,0.3699989l0.2874985,1.5788994l1.550602-0.282299     l0.1926994,1.0587006l-1.5508995,0.282299l0.4496002,2.4701996l-1.1610985,0.2112007l-1.1251984-6.1851006L38.1749001,55.9925003     z"></path>
		</g>
		<g>
			<path d="M40.4835014,55.2102013l2.0233002,5.9524994l-1.144001,0.3889008l-2.0234985-5.9527016L40.4835014,55.2102013z"></path>
		</g>
		<g>
			<path d="M44.895401,53.1363983l0.5036011,0.9723015l-1.8858986,0.9768982l0.6730003,1.2989998l1.4664993-0.7598     l0.4864998,0.9387016l-1.4668007,0.7598l0.7251015,1.3993988L47.2915039,57.7416l0.5037994,0.9720993l-2.9417,1.5238991     l-2.8917007-5.5816002L44.895401,53.1363983z"></path>
		</g>
		<g>
			<path d="M47.3909988,51.3087006c1.0110016-0.8064003,2.0382004-0.6842003,2.8270988,0.3045998l1.4309006,1.7932014     c0.7886009,0.9889984,0.6738014,2.0103989-0.344799,2.8227997l-1.4976997,1.1953011l-3.9211006-4.9147987L47.3909988,51.3087006z      M50.1152,55.8739014l0.5166016-0.4121017c0.4648018-0.3708,0.422699-0.8322983,0.0691986-1.2751007l-1.4597015-1.830101     c-0.3591003-0.4501991-0.8013992-0.5805016-1.2663994-0.2097015l-0.5089989,0.4062996L50.1152,55.8739014z"></path>
		</g>
	</g>
	<g>
		<g>
			<path d="M23.9302998,7.0686998l-0.0342007-0.0981002l0.9986992-0.3474998l0.0555992,0.1603999     c0.3349991,0.9629002,0.0914993,1.7275-0.9606991,2.0936995c-1.0163994,0.3535995-1.8437996-0.1281004-2.2038002-1.1624002     l-0.3752003-1.079c-0.3602009-1.0342002-0.0016003-1.9287,1.0060997-2.2790999     c1.052-0.3663001,1.7084007,0.0551,2.0559006,1.0538001l0.0559006,0.1602998l-0.9985008,0.3476l-0.0342007-0.0981002     c-0.1737003-0.4991999-0.4064007-0.7084002-0.7717991-0.5811c-0.3388004,0.1181002-0.4360008,0.4714999-0.2868996,0.8993998     l0.4622993,1.3288999c0.1520004,0.4368,0.4354,0.6480002,0.7831993,0.5268998     C24.0480995,7.8670998,24.1070004,7.5767999,23.9302998,7.0686998z"></path>
		</g>
		<g>
			<path d="M29.6863003,2.9101l0.0585995,0.4015999l-1.1394005,0.1668L28.5699997,3.2356     c-0.0956001-0.6536999-0.3876991-0.9545999-0.9015999-0.8794c-0.5135994,0.0752001-0.7311001,0.4793-0.6464005,1.0583     l0.3687,2.5214999c0.0862999,0.5883999,0.4463005,0.8982,0.9039993,0.8313999     C28.7336979,6.7030997,29.0099983,6.3097,28.918499,5.684l-0.0737991-0.5044003L28.1348,5.2833996l-0.1270008-0.8685999     l1.8959007-0.2772999l0.4740009,3.2409L29.7986012,7.4631l-0.3043003-0.8425999     c-0.1595993,0.5386-0.5090008,1.0855999-1.3215008,1.2044997c-1.0179996,0.1487999-1.8185997-0.4973001-2.0014992-1.7488003     l-0.3577995-2.4468999c-0.1846008-1.2610002,0.525301-2.1468999,1.6833992-2.3162999     C28.6924,1.1382,29.5044003,1.6681,29.6863003,2.9101z"></path>
		</g>
		<g>
			<path d="M33.8204994,1.1523L34.4566002,5.5997L34.4752998,5.6015l1.3950996-4.2614999l1.6637993,0.1523l-0.5727997,6.2612     l-1.0812988-0.099l0.4342995-4.7477002l-0.019001-0.0018001l-1.5625992,4.6445999L33.764698,7.4609995L33.0709,2.6099999     l-0.0186996-0.0018001l-0.4343987,4.7476997l-1.0340004-0.0946002L32.156601,1L33.8204994,1.1523z"></path>
		</g>
		<g>
			<path d="M42.0954018,2.8038001c1.0563011,0.3536,1.4520988,1.1331,1.1194992,2.1265998l-0.243,0.7248001     c-0.3325996,0.9933-1.1091995,1.3801999-2.1739006,1.0236998l-0.7340012-0.2457995L39.365799,8.5183001l-1.1453018-0.3836002     l1.9958-5.9601002L42.0954018,2.8038001z M40.3848991,5.4755998l0.5101013,0.1705999     c0.5101013,0.171,0.7994995-0.0107002,0.9556007-0.4762001l0.1796989-0.5370002     c0.1557999-0.4653001,0.0341988-0.7848001-0.4762001-0.9556l-0.5098-0.1708L40.3848991,5.4755998z"></path>
		</g>
	</g>
	<g>
		<g>
			<g>
				<path d="M9.0875998,48.8325996C5.4963999,43.9364014,3.598,38.1344986,3.598,32.0541992      c0-9.523201,4.7406993-18.3658009,12.6816998-23.6536999l0.5776997,0.8676004      c-7.6497993,5.0943003-12.217,13.6125002-12.217,22.7860985c0,5.8569984,1.8283,11.4457016,5.2876997,16.1620026      L9.0875998,48.8325996z"></path>
			</g>
		</g>
		<g>
			<g>
				<path d="M54.9123993,48.8325996l-0.8404999-0.6165009c3.459301-4.7159004,5.2877007-10.3045998,5.2877007-16.1619987      c0-9.1737003-4.5671997-17.6917992-12.2169991-22.7861004l0.5777016-0.8676004      c7.9409981,5.2880001,12.6816978,14.130599,12.6816978,23.6537018      C60.4020004,38.1348,58.5036011,43.9367981,54.9123993,48.8325996z"></path>
			</g>
		</g>
	</g>
	<g>
		<g>
			<path d="M23.5410004,46.0699997c-0.6886997,0-1.3817997-0.1139984-2.049099-0.3490982L20.711401,45.4459l2.8696995-2.8699989     c0.7525005-0.7523994,0.7525005-1.9766998,0-2.7290993c-0.7520008-0.7522011-1.9762993-0.7523994-2.7287998,0.0000992     l-2.8700008,2.8699989l-0.2749996-0.7806015c-0.7894001-2.240799-0.2147007-4.7733002,1.4638004-6.4515991     c1.5960007-1.5960999,3.9694004-2.1913986,6.1297989-1.5606995l10.264801-10.2646999     c-0.6306-2.1599998-0.0355988-4.5335007,1.5606995-6.1296997c1.6785011-1.6786003,4.2109985-2.2536001,6.4514999-1.4640007     l0.7804985,0.2749996l-2.8697014,2.8698006c-0.3646011,0.3645992-0.5654984,0.8491993-0.5654984,1.3645     c0,0.5154991,0.200901,1.0000992,0.5654984,1.3645c0.3642998,0.3645,0.8488998,0.5652008,1.364399,0.5652008     s1.0000992-0.2007999,1.364399-0.5652008l2.8699989-2.8698006l0.2750015,0.7805004     c0.7893982,2.2406006,0.2146988,4.7730007-1.4637985,6.4514999c-1.596199,1.5963993-3.9688988,2.1917-6.1297989,1.5608006     l-10.2647972,10.264801c0.6306,2.1598015,0.0356007,4.5334015-1.5604,6.1295013     C26.7649994,45.4356003,25.1651993,46.0699997,23.5410004,46.0699997z M22.6765995,44.9550018     c1.6313,0.2783012,3.3393002-0.2444992,4.5296993-1.4352989c1.392601-1.3927994,1.8687992-3.4978981,1.2126999-5.3632011     l-0.1089001-0.3095016L39.4887009,26.668499l0.3095016,0.1086998c1.8656006,0.6560001,3.9705009,0.1800003,5.3632011-1.2126999     c1.1907005-1.1905003,1.713501-2.8973007,1.4352989-4.5298996l-1.6417999,1.6418991     c-0.5614014,0.5613995-1.3078995,0.8705997-2.1016998,0.8705997s-1.5402985-0.3092003-2.1016998-0.8705997     c-0.5614014-0.5613003-0.8706017-1.3076992-0.8706017-2.1016006c0-0.7938004,0.3092003-1.5401993,0.8706017-2.1016006     l1.6417999-1.6417999c-1.6325989-0.2793007-3.3392982,0.2448997-4.5294991,1.4351006     c-1.3928986,1.3927994-1.8690987,3.4979-1.2128983,5.3633003l0.1088982,0.3094997L25.5811005,35.118l-0.3094997-0.1086998     c-1.8658009-0.656601-3.9708004-0.1800003-5.3631992,1.2126999c-1.1907005,1.1903-1.713501,2.8970985-1.4353008,4.5298996     l1.6418991-1.6417999c1.1592007-1.1590004,3.0443001-1.1589012,4.2033997-0.0000992     c1.1585999,1.1587982,1.1585999,3.0443993,0,4.2032013L22.6765995,44.9550018z"></path>
		</g>
	</g>
</g>
</svg>
