<?xml version="1.0" encoding="UTF-8"?>
<!-- Generator: Adobe Illustrator 27.8.1, SVG Export Plug-In . SVG Version: 6.00 Build 0)  -->
<svg xmlns="http://www.w3.org/2000/svg" xmlns:xlink="http://www.w3.org/1999/xlink" version="1.1" id="Layer_1" x="0px" y="0px" viewBox="0 0 64 64" style="enable-background:new 0 0 64 64;" xml:space="preserve">
<g id="Stacked_x5F_CMYK">
</g>
<g>
	<g>
		<g>
			<g>
				<g>
					<path d="M54.9099007,48.7272987l-0.8405991-0.6114006c3.4068985-4.6841011,5.2075996-10.2248993,5.2075996-16.0230026       c0-4.3671989-1.0084-8.547699-2.9968987-12.4251003l0.9244995-0.4741993       c2.0648003,4.0256004,3.1116982,8.3655014,3.1116982,12.8992996       C60.3161011,38.1120987,58.446701,43.8642006,54.9099007,48.7272987z"></path>
				</g>
			</g>
		</g>
		<g>
			<g>
				<g>
					<path d="M8.5191002,47.9234009c-3.1631002-4.6828995-4.8351998-10.1569977-4.8351998-15.8302994       c0-4.2716999,0.9289002-8.3787994,2.7612-12.2074013l0.9375,0.4487       C5.618,24.0217991,4.7231998,27.9780006,4.7231998,32.0931015c0,5.4651985,1.6104002,10.7382011,4.6571007,15.2486992       L8.5191002,47.9234009z"></path>
				</g>
			</g>
		</g>
	</g>
	<g>
		<g>
			<g>
				<path d="M16.2577991,53.3134003l-0.2866001,0.3297005l-0.8934002-0.7769012l0.2417002-0.2781982      c0.4588003-0.5275993,0.4287004-0.9520988,0.0621996-1.2705994c-0.3662004-0.3184013-0.8570995-0.2564011-1.2966995,0.2490997      l-1.6236,1.8683014c-0.4457998,0.5129013-0.4385004,1.0078011-0.0723,1.3261986      c0.3664999,0.3182983,0.7905998,0.2885017,1.2493-0.2389984l0.2417002-0.2784996l0.8942003,0.7770004l-0.2866001,0.3297005      c-0.8596001,0.9891014-1.8593998,1.0591011-2.8267002,0.2187004c-0.9741001-0.8470001-1.0312004-1.9508018-0.1267004-2.9911995      l1.5663004-1.8023987c0.9041996-1.0404015,2.0494003-1.0998993,3.0091-0.2655983      C17.0841007,51.3564987,17.1431007,52.2949982,16.2577991,53.3134003z"></path>
			</g>
		</g>
		<g>
			<g>
				<path d="M21.5081005,54.2542992l-0.5545998,0.9799995L19.0527,54.1590004l-0.7404995,1.3093987l1.4783001,0.8363991      l-0.535099,0.9462013l-1.4785995-0.8363991l-0.7980995,1.4109001l1.9094009,1.0802002l-0.5543003,0.9799995      l-2.9658003-1.6775017l3.1831007-5.6267014L21.5081005,54.2542992z"></path>
			</g>
		</g>
		<g>
			<g>
				<path d="M21.7705994,61.2654991l-1.1807995-0.3871994l2.0146999-6.1431007l1.9738998,0.6470985      c1.0793991,0.3540001,1.4731007,1.1778984,1.1583996,2.1371994l-0.2206001,0.6734009      c-0.2178993,0.6641998-0.6765995,1.0653992-1.2931995,1.1389999l0.1667004,2.7925987l-1.2262993-0.4023018l-0.1387997-2.5994987      l-0.4976997-0.1632004L21.7705994,61.2654991z M22.8383999,58.0094986l0.5531998,0.1814995      c0.5163994,0.1693993,0.8260002-0.0253983,0.9710999-0.4682007l0.1662006-0.5071983      c0.1483002-0.4519997,0.0146008-0.7921982-0.5018005-0.9616013l-0.5534992-0.1814995L22.8383999,58.0094986z"></path>
			</g>
		</g>
		<g>
			<g>
				<path d="M30.9227009,56.5873985l-0.1417999,1.1362l-1.3285999-0.1661987l-0.660099,5.2765999l-1.2325001-0.1543007      l0.6601009-5.2765999l-1.3386002-0.1674004l0.1424007-1.1362L30.9227009,56.5873985z"></path>
			</g>
		</g>
		<g>
			<g>
				<path d="M33.4185982,56.4994011l0.2084007,6.460598L32.3855019,63l-0.2084007-6.4606018L33.4185982,56.4994011z"></path>
			</g>
		</g>
		<g>
			<g>
				<path d="M38.3120003,55.7723999l0.207901,1.1067009l-2.0889015,0.3922997l0.3041992,1.6217003l1.5932999-0.2991982      l0.2041016,1.0875015l-1.5929985,0.2993011l0.4766006,2.5374985l-1.1925011,0.2238007l-1.1932983-6.353199      L38.3120003,55.7723999z"></path>
			</g>
		</g>
		<g>
			<g>
				<path d="M40.6677017,54.9453011l2.1449013,6.0985985l-1.1721992,0.4122009l-2.1449013-6.0985985L40.6677017,54.9453011z"></path>
			</g>
		</g>
		<g>
			<g>
				<path d="M45.1609993,52.7570992l0.5323982,0.9919014l-1.924099,1.0327988l0.7114983,1.3255005l1.4963989-0.8033981      l0.5141983,0.9578018l-1.4963989,0.803299l0.7667999,1.4281998l1.9327011-1.0377007l0.5323982,0.9920998l-3.0014992,1.6113014      l-3.0574989-5.6952019L45.1609993,52.7570992z"></path>
			</g>
		</g>
		<g>
			<g>
				<path d="M47.6721001,50.838501c1.0217018-0.8512001,2.0805016-0.7477989,2.9127007,0.2515984l1.5093994,1.8120995      c0.8325005,0.9990997,0.7364006,2.0517006-0.2925987,2.9087982l-1.5136986,1.2611008l-4.1371994-4.9664001L47.6721001,50.838501      z M50.5716019,55.4715004l0.521801-0.4347c0.469799-0.3913994,0.4165001-0.8648987,0.0441017-1.3124008l-1.5405006-1.8493004      c-0.3792-0.4547005-0.8366013-0.5792007-1.3062019-0.1878014l-0.5144997,0.4286995L50.5716019,55.4715004z"></path>
			</g>
		</g>
	</g>
	<g>
		<g>
			<g>
				<path d="M9.6794004,10.6248999L10.5265007,11.3666l-1.4000998,1.5994997l1.2414999,1.0868998l1.0677004-1.2198      l0.8324995,0.7290001l-1.0674,1.2196999l1.9425001,1.7004995l-0.7989998,0.9130001l-4.8639002-4.2579994L9.6794004,10.6248999z"></path>
			</g>
		</g>
		<g>
			<g>
				<path d="M15.1691999,8.0480003l0.2259998,0.2793999l-0.9133997,0.7383003l-0.1954002-0.2417002      c-0.2927999-0.3622999-0.6514997-0.4968996-1.0815001-0.1490002c-0.3775997,0.3051996-0.3878002,0.6631002-0.1131001,1.0028      c0.3294001,0.4076004,0.6520004,0.3589001,1.6774998,0.1294003c1.1521997-0.2574997,1.7697992-0.1577997,2.3982,0.6198997      c0.7082996,0.8757,0.5688992,1.8617001-0.4200001,2.6612997c-1.0868998,0.8788004-1.9776001,0.6877003-2.6491003-0.1424999      l-0.2866001-0.3549995l0.9133997-0.7383003L14.9384985,12.1166c0.3542995,0.4379997,0.7335005,0.5058002,1.1713991,0.1520004      c0.3924007-0.3175001,0.4375992-0.6786995,0.1508007-1.0334997c-0.3478003-0.4301996-0.6041002-0.4229002-1.7440996-0.1501999      c-1.0268002,0.2432003-1.691,0.1936998-2.3621998-0.6367998c-0.6349001-0.7849998-0.5834999-1.7872,0.4054003-2.5867      C13.6086998,7.0128999,14.5042,7.2252002,15.1691999,8.0480003z"></path>
			</g>
		</g>
		<g>
			<g>
				<path d="M20.2896004,5.1747999l0.1651001,0.3186998L19.4118996,6.0337l-0.1425991-0.2757001      c-0.2143993-0.4136-0.5386009-0.6171999-1.0298004-0.3627C17.8085995,5.6184998,17.7269001,5.967,17.9277,6.3547997      c0.2413998,0.4654002,0.5669994,0.4823999,1.6173992,0.4626999c1.1805992-0.0212002,1.7651997,0.2003002,2.2252998,1.0879002      c0.5177994,0.9995999,0.1846008,1.9379001-0.9445992,2.5229001c-1.2409,0.6431999-2.0753002,0.2774-2.5666008-0.6703997      l-0.2098007-0.4052L19.0921974,8.8125l0.1562004,0.3015003c0.2590008,0.4998999,0.6170998,0.6422997,1.1170006,0.3834      c0.4480019-0.2323999,0.5646019-0.5771008,0.3546009-0.9821005c-0.2544003-0.4910002-0.5069008-0.5352001-1.6783009-0.4965      C17.9869976,8.0513,17.3462982,7.8697,16.8550987,6.9216995c-0.4643993-0.8962998-0.2134991-1.868,0.9151001-2.4528999      C18.9680996,3.8480999,19.8027,4.2351999,20.2896004,5.1747999z"></path>
			</g>
		</g>
		<g>
			<g>
				<path d="M26.1851997,3.5299001L26.3020992,3.9505l-1.1404991,0.3175998l-0.0993004-0.3552001      c-0.1870003-0.6731999-0.5575008-0.8823001-1.0251999-0.7521c-0.4673996,0.1299999-0.6863995,0.5740001-0.5069008,1.2190001      L24.1938,6.7641997c0.1823997,0.6543999,0.5991993,0.9212999,1.0666008,0.7912002      c0.4676991-0.1301999,0.6769009-0.5008001,0.4892998-1.1739001L25.6509991,6.026l1.1404991-0.3176003l0.1172009,0.421      c0.3512993,1.2621999-0.1410007,2.1348996-1.3752003,2.4784999c-1.2438984,0.3461008-2.1957989-0.2149-2.5654984-1.5426998      l-0.6403999-2.3002996c-0.3694-1.3274999,0.2115993-2.3158,1.4365997-2.6566999      C25.0081997,1.762,25.8230991,2.2300999,26.1851997,3.5299001z"></path>
			</g>
		</g>
		<g>
			<g>
				<path d="M34.5187988,2.849C34.5023003,3.7512999,34.1931992,4.1921,32.9427986,5.1398001      c-0.7873001,0.5969-0.9864998,0.8552999-0.9955006,1.3404999l2.4355984,0.0448999L34.3625946,7.6313l-3.7262993-0.0686998      l0.007-0.3785c0.0235004-1.2711,0.2574005-1.8492002,1.5968018-2.8825998c0.8666-0.6731,1.1034012-0.8822999,1.114502-1.4742      c0.0088997-0.4947-0.2290001-0.7516-0.6949997-0.7602999c-0.4947014-0.0092001-0.7523994,0.2772999-0.7616005,0.7818999      L31.8878002,3.402L30.7914009,3.3817l0.0114002-0.6113c0.0186996-1.0190001,0.5960007-1.7944,1.9254017-1.7699      C34.1736984,1.0272,34.5367012,1.8784,34.5187988,2.849z"></path>
			</g>
		</g>
		<g>
			<g>
				<path d="M40.101799,3.8712001c-0.1899986,0.8825998-0.5780983,1.2557001-1.9874001,1.9452      c-0.8876991,0.4344001-1.1327019,0.6496-1.2346992,1.1241002l2.3816986,0.5125999l-0.2330017,1.0817003l-3.6435013-0.7842999      l0.0797997-0.3699999c0.2673988-1.243,0.6082001-1.7652998,2.1213989-2.5218      c0.9799995-0.4938002,1.2526016-0.6535997,1.3768005-1.2325001c0.1044998-0.4837999-0.0797997-0.7816-0.5353012-0.8794999      c-0.4836998-0.1043-0.7915993,0.1272001-0.8979988,0.6206l-0.1164017,0.5410001l-1.0719986-0.2309l0.1286011-0.5978999      c0.2145996-0.9963,0.9305-1.6464,2.2302017-1.3665C40.1133995,2.0174999,40.3058014,2.9226,40.101799,3.8712001z"></path>
			</g>
		</g>
		<g>
			<g>
				<path d="M45.4972,6.2972999l-1.0447006,2.3720002c-0.5477982,1.2438002-1.5126991,1.6036997-2.6231003,1.1145      c-1.1105003-0.4892998-1.4962006-1.4442005-0.948101-2.6877999L41.9262962,4.724      c0.5437012-1.2350001,1.5085983-1.5949001,2.6190987-1.1055999C45.6557999,4.1076002,46.0415001,5.0623002,45.4972,6.2972999z       M43.0446014,5.1954999l-1.0647011,2.4164c-0.2466011,0.5596004-0.1918983,0.9655004,0.2879982,1.1769004      C42.7477989,9,43.0839005,8.7665005,43.3302002,8.2068005l1.0647011-2.4164      c0.2462997-0.5597,0.1921997-0.9657001-0.2877007-1.1768999C43.6274986,4.4021001,43.2910995,4.6357999,43.0446014,5.1954999z"></path>
			</g>
		</g>
		<g>
			<g>
				<path d="M50.5550995,9.6666002l-1.5158997,2.1019001c-0.794899,1.1021004-1.8130989,1.2530003-2.7971992,0.5432005      c-0.983799-0.7096004-1.1622009-1.7236004-0.3672981-2.8255997l1.5158997-2.1016998      c0.7891998-1.0941,1.8077011-1.2451,2.7915001-0.5353003C51.1661987,7.5588002,51.3442993,8.5726995,50.5550995,9.6666002z       M48.3857994,8.0784998l-1.5441017,2.1409998c-0.3577995,0.4958-0.3891983,0.9041004,0.0359993,1.2108002      c0.4252014,0.3065004,0.8027,0.1479998,1.1604996-0.3478003l1.5441017-2.1410999      c0.3577995-0.4958,0.3889008-0.9041004-0.0363007-1.2108002C49.1214981,7.4239998,48.7435989,7.5825,48.3857994,8.0784998z"></path>
			</g>
		</g>
		<g>
			<g>
				<path d="M54.8112984,14.0056L52.8949013,15.75c-1.0043983,0.9151001-2.032299,0.8530998-2.849102-0.0444002      c-0.8167992-0.8970995-0.7821999-1.9259005,0.2224998-2.8408995l1.9165001-1.7445002      c0.9976006-0.9083004,2.0252991-0.8463001,2.8420982,0.0507002C55.8432999,12.0683002,55.8089981,13.0972996,54.8112984,14.0056      z M53.0158005,12.0042l-1.9524994,1.7771997c-0.4519997,0.4118004-0.5667,0.8049002-0.2137985,1.1925001      c0.3529015,0.3877001,0.7551003,0.3104,1.2070999-0.1014004l1.9522018-1.7774      c0.4519997-0.4117002,0.5667-0.8048,0.2137985-1.1921997C53.8703003,11.5155001,53.4678001,11.5927,53.0158005,12.0042z"></path>
			</g>
		</g>
	</g>
	<g>
		<g>
			<g>
				<g>
					<g>
						<path d="M32.0256004,46.0197983c-0.5440006,0-1.0909996-0.0354996-1.6392994-0.1072006        c-3.2945995-0.4310989-6.2238998-2.1194992-8.2486-4.7537994c-2.0247002-2.6341019-2.9022007-5.899601-2.4713001-9.1938l0,0        c0.4311008-3.2945004,2.1191998-6.2238998,4.7537003-8.2486c2.634201-2.0247002,5.8990993-2.9022007,9.1936989-2.4713001        c3.2946014,0.4311008,6.2238998,2.1193008,8.2486,4.7537003c2.0247002,2.634201,2.9025002,5.8994999,2.4712982,9.1937981        c-0.4310989,3.2944984-2.1192017,6.2238998-4.7537003,8.2486        C37.384201,45.1290016,34.7496986,46.0196991,32.0256004,46.0197983z M31.9766006,22.1772995        c-2.4967003,0-4.9106998,0.8162994-6.9232006,2.3631992c-2.4144993,1.8554001-3.9615002,4.5402012-4.3563995,7.5593014l0,0        c-0.3950996,3.0191994,0.4092007,6.0115013,2.2644997,8.4257011c1.8556004,2.414299,4.5403996,3.9614983,7.5594997,4.3564987        c3.0199013,0.3953018,6.0114021-0.4094009,8.425602-2.264801c2.4145012-1.8555984,3.9614983-4.5402985,4.3563995-7.5593987        c0.3950996-3.0191994-0.4091988-6.0114994-2.2644997-8.4257011c-1.8555984-2.4141998-4.5404015-3.9613991-7.5595016-4.3563995        C32.9766006,22.2098999,32.4748993,22.1772995,31.9766006,22.1772995z"></path>
					</g>
				</g>
			</g>
			<g>
				<g>
					<g>
						<rect x="31.4801998" y="16.781601" width="1.0393009" height="4.8766994"></rect>
					</g>
				</g>
			</g>
			<g>
				<g>
					<g>
						<path d="M32.3650017,22.0282993l-0.7297001-0.7399998l7.4988995-7.3950996l0.3647995,0.3586998        c0.6749992,0.6636,1.0512009,1.5503998,1.0592995,2.4969997c0.0080986,0.9466991-0.3529015,1.8398991-1.0166016,2.5149002        c-0.6636009,0.6751003-1.550602,1.0513-2.4970016,1.0592995c-0.010601,0.0000992-0.0208015,0.0000992-0.0311012,0.0000992        c-0.7943993,0-1.5497017-0.2600994-2.1683998-0.7409L32.3650017,22.0282993z M35.5946007,18.843399        c0.4206009,0.2907009,0.919899,0.4454002,1.4412003,0.4405994c0.6689987-0.0058002,1.2958984-0.2716007,1.7649002-0.7488003        s0.7243004-1.1082993,0.7186012-1.777401c-0.0042992-0.4953995-0.1512985-0.9675999-0.4208984-1.3697996L35.5946007,18.843399        z"></path>
					</g>
				</g>
			</g>
		</g>
		<g>
			<g>
				<g>
					<polygon points="31.2068996,36.5248985 27.2731991,32.5914993 28.0083008,31.8567009 31.2068996,35.0550003        37.3899002,28.8717003 38.1249008,29.6065006      "></polygon>
				</g>
			</g>
		</g>
	</g>
</g>
</svg>
