<?xml version="1.0" encoding="UTF-8"?>
<!-- Generator: Adobe Illustrator 27.8.1, SVG Export Plug-In . SVG Version: 6.00 Build 0)  -->
<svg xmlns="http://www.w3.org/2000/svg" xmlns:xlink="http://www.w3.org/1999/xlink" version="1.1" id="Layer_1" x="0px" y="0px" viewBox="0 0 64 64" style="enable-background:new 0 0 64 64;" xml:space="preserve">
<g id="Stacked_x5F_CMYK">
</g>
<g>
	<g>
		<g>
			<g>
				<path d="M8.5288,47.8866997c-3.1610999-4.6796989-4.8319998-10.1514015-4.8319998-15.8232002      c0-2.7626991,0.4014001-5.5009995,1.1943002-8.1406002l0.9941001,0.2987995      c-0.7627001,2.5419998-1.1493998,5.1807003-1.1493998,7.8418007c0,5.4639015,1.6093998,10.7343979,4.6542997,15.2411995      L8.5288,47.8866997z"></path>
			</g>
		</g>
		<g>
			<g>
				<path d="M54.8988991,48.6903992l-0.8398018-0.6113014c3.4053001-4.6825981,5.205101-10.2206993,5.205101-16.0155983      c0-2.6641006-0.3886986-5.3096008-1.1562004-7.8642998l0.9940987-0.2987995      c0.7969017,2.6513996,1.2011986,5.397501,1.2011986,8.1630993      C60.3031998,38.0791016,58.4341011,43.8291016,54.8988991,48.6903992z"></path>
			</g>
		</g>
	</g>
	<g>
		<g>
			<path d="M16.2826004,53.3179016l-0.2865,0.3294983l-0.8933001-0.7764015l0.2418003-0.2781982     c0.4580002-0.527401,0.4281998-0.9516983,0.0621996-1.2700005c-0.3662996-0.3181-0.8570004-0.2561989-1.2964001,0.2490005     l-1.6229,1.8674011c-0.4453001,0.5125999-0.4382,1.0073013-0.0721998,1.3254013     c0.3662996,0.3184013,0.7904997,0.2887001,1.2487001-0.2386017l0.2418003-0.2784004l0.8935003,0.7765007l-0.2868004,0.3294983     c-0.8589001,0.9886017-1.8579998,1.0587006-2.8250999,0.218399c-0.9736004-0.8465004-1.0306997-1.9496994-0.1266003-2.9896011     l1.5657997-1.8017006c0.9035997-1.0399017,2.0480995-1.0993996,3.0074005-0.2657013     C17.1082993,51.3619003,17.1672993,52.2999001,16.2826004,53.3179016z"></path>
		</g>
		<g>
			<path d="M21.5280991,54.2574997l-0.5545998,0.9794006l-1.9001999-1.0756989l-0.7405987,1.3087997l1.4776001,0.8367004     l-0.5354004,0.9455986l-1.4778996-0.8367004l-0.7982998,1.410099l1.907999,1.0805016l-0.5543003,0.979599l-2.9638996-1.6781998     l3.1842995-5.6234016L21.5280991,54.2574997z"></path>
		</g>
		<g>
			<path d="M21.7924004,61.2664986l-1.1800003-0.3871002l2.0135002-6.1403999l1.9729004,0.6470985     c1.0788994,0.3538017,1.4724998,1.1772995,1.1578007,2.1361008l-0.2206993,0.6730995     c-0.2175007,0.6638985-0.6758003,1.0648994-1.2922993,1.1385002l0.1669006,2.7914009l-1.2262993-0.4023018l-0.1382008-2.5980988     l-0.4978008-0.1632996L21.7924004,61.2664986z M22.8596001,58.0117989l0.5531998,0.1814995     c0.5161991,0.1692009,0.8250999-0.0256004,0.9703999-0.4681015l0.1660995-0.5070992     c0.1481991-0.4518013,0.0146008-0.7915993-0.5016003-0.9608994l-0.5531998-0.1814995L22.8596001,58.0117989z"></path>
		</g>
		<g>
			<path d="M30.9405003,56.5901985l-0.1420002,1.1357002l-1.3279991-0.1660995l-0.6597996,5.2741013l-1.2320004-0.1539001     l0.6597996-5.2742996l-1.3379993-0.1673012l0.1422997-1.1357994L30.9405003,56.5901985z"></path>
		</g>
		<g>
			<path d="M33.4350014,56.5024986l0.2085991,6.4574013L32.402401,63l-0.2083015-6.4574013L33.4350014,56.5024986z"></path>
		</g>
		<g>
			<path d="M38.3260002,55.7757988l0.2080002,1.105999l-2.0881996,0.3922997l0.3045998,1.6209984l1.5919991-0.2991982     l0.2039986,1.087101l-1.5919991,0.299099l0.4763985,2.5363998l-1.1921997,0.2237015l-1.1925011-6.3502998L38.3260002,55.7757988z     "></path>
		</g>
		<g>
			<path d="M40.6758003,54.9505005l2.1436005,6.0959015l-1.1713982,0.4119987l-2.143898-6.0959015L40.6758003,54.9505005z"></path>
		</g>
		<g>
			<path d="M45.1721992,52.7616005l0.5321007,0.9915009l-1.9229012,1.0325012l0.7112007,1.3247986l1.4957008-0.8028984     l0.5139999,0.9574013l-1.4959984,0.8028984l0.7663994,1.4273987l1.9318008-1.0371017l0.5323982,0.9915009l-3.0004005,1.6106987     l-3.0558014-5.6926003L45.1721992,52.7616005z"></path>
		</g>
		<g>
			<path d="M47.6823997,50.8440018c1.0209999-0.8507004,2.0792999-0.7475014,2.9110985,0.2514992l1.5089989,1.8112984     c0.8319016,0.9986,0.7360992,2.0507011-0.2924004,2.9075012l-1.513298,1.260498l-4.1350021-4.9640999L47.6823997,50.8440018z      M50.5802994,55.4748001l0.521801-0.4345016c0.4693985-0.391201,0.4160995-0.8644981,0.0438004-1.3117981l-1.5397987-1.8484001     c-0.3787003-0.4546013-0.8358994-0.5791016-1.3055-0.1879005l-0.5143013,0.4285011L50.5802994,55.4748001z"></path>
		</g>
	</g>
	<g>
		<g>
			<path d="M4.8358998,17.2530994l5.7312999,2.9820004l-0.5731993,1.1014004L4.263,18.3547001L4.8358998,17.2530994z"></path>
		</g>
		<g>
			<path d="M9.7262001,12.9903002l0.2873001,0.2149l-0.7027998,0.9403L9.0618,13.9595003     c-0.3727999-0.2788-0.7531004-0.3207998-1.0843,0.1218996c-0.2905002,0.3888998-0.2121,0.7379999,0.1372004,0.9991999     c0.4198999,0.3137999,0.7203999,0.1871996,1.6569996-0.2876997c1.0525999-0.5334997,1.6753998-0.5888004,2.4757996,0.0095997     c0.9013996,0.6737003,1.0095997,1.6632004,0.2486,2.6812c-0.8365002,1.1189003-1.7465,1.1534996-2.6011,0.5144997     l-0.3651991-0.2731991l0.7027998-0.9402008l0.2719002,0.2033005c0.4506998,0.3370991,0.8351002,0.3092003,1.1718998-0.1415005     c0.3018999-0.4039993,0.2566996-0.7649002-0.1082001-1.0379c-0.4434004-0.3312998-0.6896-0.2608004-1.7268,0.2841005     c-0.9347,0.4883995-1.5901003,0.6039009-2.4449997-0.0349007c-0.8080997-0.6042004-1.0054998-1.5875998-0.2448001-2.6056004     C7.9590998,12.3722,8.8788996,12.3571997,9.7262001,12.9903002z"></path>
		</g>
		<g>
			<path d="M14.5464001,8.9765997l1.5366001,1.7487001c0.9412003,1.0713005,0.8264999,2.2047997-0.1204004,3.0372     c-0.9474001,0.8320999-2.0862999,0.7997999-3.0274-0.2713003l-1.5366001-1.7487001     c-0.9412003-1.0711002-0.8267002-2.2046003,0.1204004-3.0369997C12.4666004,7.8730998,13.6052999,7.9053998,14.5464001,8.9765997     z M12.3203001,10.8809996L13.908,12.6880999c0.4674997,0.5319004,0.9368,0.6103001,1.3374996,0.2579002     c0.4006004-0.3520002,0.3832998-0.8274002-0.0840998-1.3592005L13.5737,9.7796993     c-0.4674997-0.5319996-0.9365997-0.6103001-1.3372002-0.2581997C11.8354998,9.8736,11.8528004,10.3488998,12.3203001,10.8809996z     "></path>
		</g>
		<g>
			<path d="M21.9319992,4.8319998l1.0009003,2.2512999c0.5834999,1.3118,0.2537994,2.2651997-0.8983994,2.7777004     c-1.3295994,0.5911999-2.0457001,0.0073004-2.3334999-0.6396999l-0.1928997-0.4343004l1.0014992-0.4454002L20.6159,8.5808992     c0.1853008,0.4166002,0.5321007,0.5277004,0.9927998,0.323c0.4255009-0.1894999,0.6068001-0.5460997,0.3463001-1.1308999     l-0.4491005-1.0103002c-0.1574001,0.4095998-0.3768005,0.7514-0.8908005,0.9801002     c-0.9043999,0.402-1.5711994,0.0721002-1.9377995-0.7522001l-0.3705997-0.8332     c-0.4650002-1.046-0.1417999-1.9432001,1.0104008-2.4554999C20.4869003,3.1817,21.3449993,3.5114,21.9319992,4.8319998z      M19.3834,5.6896l0.2838001,0.638c0.2206993,0.4963999,0.5683994,0.5858002,0.9761009,0.4046001     c0.3901005-0.1733999,0.6105995-0.5369,0.3976994-1.0153999l-0.2838001-0.6382999     c-0.2324009-0.5228-0.6245995-0.5927-1.0144997-0.4193001C19.3612003,4.8285999,19.1506996,5.1665001,19.3834,5.6896z"></path>
		</g>
		<g>
			<path d="M27.8043003,3.3060999l0.5435009,2.5328999c0.2849007,1.3280001-0.2854004,2.1845999-1.4717007,2.4387999     c-1.1854,0.2543001-2.0571003-0.2930002-2.3418999-1.6210003l-0.5432014-2.5325994     c-0.2826996-1.3185,0.2875996-2.1752999,1.4734993-2.4294C26.6501999,1.4404,27.5216007,1.9878,27.8043003,3.3060999z      M25.1728992,3.8508999l0.5531998,2.5800998c0.1282005,0.5976,0.4101009,0.8944001,0.9221992,0.7844     c0.5123997-0.1097999,0.6478996-0.4959998,0.5196991-1.0938997l-0.5534992-2.5799999     C26.4862976,2.9438,26.2043972,2.6470001,25.6919975,2.757C25.1802006,2.8670001,25.0443993,3.2532001,25.1728992,3.8508999z"></path>
		</g>
		<g>
			<path d="M33.8754005,3.0613l0.0073013,2.5905001c0.0041008,1.3583999-0.7314987,2.0785999-1.9442997,2.0819998     c-1.212801,0.0036998-1.9524002-0.7122998-1.9561996-2.0706997l-0.0076008-2.5905001     C29.9706001,1.7237,30.7061996,1.0037,31.9188995,1C33.1316986,0.9966,33.8712997,1.7126,33.8754005,3.0613z      M31.1877003,3.0495999l0.0076008,2.6389997c0.0016003,0.6114001,0.2161999,0.9601002,0.7402,0.9584999     c0.5237007-0.0014,0.7364006-0.3513999,0.7345009-0.9626999l-0.0075989-2.6391001     c-0.0015984-0.6111999-0.2160988-0.9600999-0.7402-0.9584999C31.3985004,2.0883,31.1856003,2.4382999,31.1877003,3.0495999z"></path>
		</g>
		<g>
			<path d="M35.983799,2.1382l0.4299011,0.0755c0.4393005,0.0771,0.7299004-0.1178999,0.8732986-0.6540999l0.8692017,0.1528     l-1.1228981,6.3909001l-1.1846008-0.2080002L36.6733017,3.2047l-0.8502998-0.1493001L35.983799,2.1382z"></path>
		</g>
		<g>
			<path d="M41.8997002,5.638l-0.3073006,0.9302001L39.5110016,5.8799l0.3073006-0.9301L41.8997002,5.638z"></path>
		</g>
		<g>
			<path d="M47.299099,7.0558C46.8794975,7.8544002,46.4057999,8.1098003,44.8640976,8.3954     c-0.971199,0.1801996-1.2649994,0.3217001-1.4906006,0.7510004l2.1554985,1.1325998l-0.5144997,0.9789l-3.2971001-1.7323999     l0.1758003-0.3348999c0.5910988-1.1247997,1.0593987-1.5362997,2.7190018-1.8589001     c1.075901-0.2128,1.3810005-0.2932,1.6563988-0.8171C46.498497,6.0766001,46.4013977,5.7406001,45.9890976,5.5239     c-0.4379997-0.2301002-0.7963982-0.0897002-1.0312004,0.3568001l-0.257,0.4895l-0.9704018-0.5098l0.2840004-0.5409999     c0.4737015-0.9017,1.3372002-1.3355999,2.5136986-0.7174001C47.8078995,5.2742,47.7503014,6.1971002,47.299099,7.0558z"></path>
		</g>
		<g>
			<path d="M51.8470993,10.8357l-1.6394005,2.0059004c-0.8595009,1.0516996-1.8847008,1.1412001-2.8240013,0.3739004     c-0.9387016-0.7672997-1.0555992-1.7897997-0.1960983-2.8418999l1.6390991-2.0059004     c0.853199-1.0444002,1.8785019-1.1336002,2.8177986-0.3663998C52.5834999,8.7687998,52.7004013,9.7914,51.8470993,10.8357z      M49.7781982,9.1201L48.1082993,11.1636c-0.3866005,0.4734001-0.4426003,0.8790998-0.036499,1.2104998     c0.4054985,0.3315001,0.7918015,0.1960001,1.1783981-0.2772999l1.6702003-2.0434999     c0.3862991-0.4734001,0.4422989-0.8788004,0.036499-1.2102995C50.5513,8.5115004,50.1646996,8.6468,49.7781982,9.1201z"></path>
		</g>
		<g>
			<path d="M54.0648994,11.4568996l0.2845993,0.3311005c0.2907982,0.3386002,0.6391983,0.3718004,1.0904999,0.0481997     l0.5754013,0.6695004l-4.9232979,4.231101l-0.7840004-0.9125004l3.613102-3.1052999l-0.5629997-0.6548004L54.0648994,11.4568996z     "></path>
		</g>
		<g>
			<path d="M56.3751984,19.7406998l-0.925499,0.5512009c-0.9581985,0.5709-1.8931007,0.4050999-2.5382996-0.6786003     c-0.6855011-1.1501007-0.3600998-1.9311008,0.5150986-2.4526005l0.3330002-0.1987l0.5567017,0.9337006l-0.2085991,0.1242008     c-0.4501991,0.2681007-0.5461998,0.6187992-0.2977982,1.0356007c0.2332001,0.3917007,0.605999,0.4860992,1.0894012,0.198     l0.6497993-0.3873997c0.4584999-0.2730007,0.5908012-0.5438004,0.3576012-0.9354992     c-0.2088013-0.3502007-0.5446014-0.4211998-1.0004005-0.4657993l-0.3732986-0.8729992l3.2616997-1.6717997l1.7277985,2.9005995     c-0.7415009,0.3854008-1.0295982,0.4326-1.2877007-0.0007992l-0.8841019-1.4836006l-1.5231018,0.7607002     c0.4788017,0.1212006,0.7896996,0.2070007,1.0926018,0.7154007     C57.4067001,18.6291008,57.1501999,19.2789001,56.3751984,19.7406998z"></path>
		</g>
	</g>
	<g>
		<path d="M42.0121002,20.8815002c-0.0015984,0.0016994-0.0029984,0.0034008-0.0046005,0.0051003    c-1.4973984-1.3906002-3.2793007-2.4785995-5.2479019-3.1646004c-0.0018997-0.0006008-0.0037003-0.0011997-0.0055008-0.0018005    c-0.2113991-0.0736008-0.4253006-0.1422997-0.6408997-0.2064991c-0.0237007-0.007-0.0475998-0.0132999-0.0713005-0.0202007    c-0.1963997-0.0573997-0.3942986-0.1112995-0.5937996-0.1606998c-0.0466995-0.0114994-0.0938988-0.0214005-0.1407013-0.0324001    c-0.1795998-0.0426006-0.3600998-0.0834007-0.5423012-0.1194c-0.0716019-0.0140991-0.1441994-0.0254993-0.2160988-0.0386009    c-0.1607018-0.0293007-0.3213997-0.0583992-0.483799-0.0825005c-0.1001015-0.0147991-0.2014008-0.0256004-0.3022003-0.0384007    c-0.1377983-0.0175991-0.2753983-0.0365009-0.4143982-0.0503006c-0.1394997-0.0137005-0.2803993-0.0221004-0.4208984-0.0319996    c-0.1035995-0.0072994-0.2064018-0.0174007-0.3103981-0.0226002c-0.2475014-0.0121994-0.4963989-0.0188999-0.7469006-0.0188999    c-0.2506008,0-0.4997005,0.0067005-0.7472,0.0188999c-0.1026993,0.0051003-0.2040005,0.0149994-0.3059998,0.0221996    c-0.1422005,0.0098991-0.2845993,0.0184994-0.4256992,0.0324001c-0.1385002,0.0137005-0.2754993,0.0326004-0.4130993,0.0501003    c-0.1009998,0.0128002-0.2028008,0.0237007-0.3031006,0.0384998c-0.1623001,0.0240993-0.323,0.0531998-0.4836006,0.0825005    c-0.0720997,0.0130997-0.1446991,0.0244999-0.2164001,0.0387001c-0.1818008,0.0359993-0.3617992,0.0765991-0.5412006,0.1191006    c-0.0471992,0.0111008-0.0948009,0.0212002-0.1418991,0.0328007c-0.1996002,0.0494003-0.3973999,0.1033001-0.5937996,0.1606998    c-0.0235004,0.0069008-0.0473003,0.0132008-0.0709,0.0202007c-0.2159996,0.0643005-0.4300995,0.1329994-0.6420002,0.2068005    c-0.0014,0.0004997-0.0028,0.0009003-0.0042,0.0014c-1.9687004,0.6860008-3.7507992,1.7740993-5.2481995,3.1646996    c-0.0016003-0.0016994-0.0030994-0.0035-0.0046005-0.0051994c-0.2537994,0.2355995-0.4986,0.4803009-0.7353992,0.7327995    c0.0016003,0.0016994,0.0030994,0.0035,0.0046997,0.0051994c-1.5636005,1.6672993-2.7502995,3.6919994-3.4207993,5.9372997    c-0.0007,0.0023994-0.0014,0.0049-0.0020008,0.0072994c-0.0648994,0.2178993-0.1247997,0.4379005-0.1798992,0.6599007    c-0.0067997,0.0275002-0.0123997,0.0552998-0.0191002,0.0827999c-0.0482998,0.1991997-0.0932999,0.3994999-0.1334991,0.6016998    c-0.0107994,0.0552998-0.0195007,0.1114006-0.0298004,0.1669998c-0.0330009,0.1772995-0.0650997,0.3549004-0.0916996,0.5342999    c-0.0130005,0.0876007-0.0221996,0.1763992-0.0337009,0.2644997c-0.0195999,0.1508999-0.0403004,0.3013992-0.0555,0.4535999    c-0.0130005,0.1312008-0.0205994,0.2637997-0.0301991,0.3959999c-0.0081005,0.1124001-0.0188999,0.2241001-0.0245991,0.3372002    c-0.0123005,0.2481003-0.0188999,0.4976006-0.0188999,0.7486992c0,0.0002003,0,0.0002995,0,0.0004997    c0,0.2511997,0.0065994,0.5007992,0.0188999,0.7488995c0.0058002,0.1153984,0.0168991,0.2294006,0.0252991,0.344101    c0.0093002,0.1300011,0.0168991,0.2605019,0.0296001,0.3894997c0.0156002,0.1567001,0.0368004,0.3115997,0.0571003,0.4668007    c0.0111008,0.0838013,0.0196991,0.1683006,0.0321007,0.2517014c0.0275002,0.1842995,0.0603008,0.3669014,0.0944004,0.5489998    c0.0095997,0.0509987,0.0174007,0.1026001,0.0275002,0.1534004c0.0412998,0.2080002,0.0876999,0.4141006,0.1375999,0.6189003    c0.0053005,0.0219994,0.0098991,0.0442009,0.0153008,0.0662003c0.6254997,2.517498,1.8931007,4.7841988,3.6168995,6.6170006    c-0.0016003,0.0017014-0.0030994,0.0035019-0.0046997,0.0051994c0.2371998,0.2522011,0.4820995,0.4968987,0.7362003,0.7321014    c0.0014992-0.0017014,0.0030003-0.0035019,0.0046005-0.0051994c1.4951992,1.3844986,3.2730999,2.4676018,5.2364006,3.1511002    c0.0065002,0.0023003,0.0130997,0.0043983,0.0196991,0.0066986c0.2063999,0.0716019,0.4151001,0.1385002,0.6256008,0.2010994    c0.0282993,0.0084,0.0568008,0.0159988,0.0851002,0.0242004c0.1917,0.0558014,0.3847008,0.1082993,0.5795002,0.1565018    c0.0505009,0.0124016,0.1014004,0.023201,0.1518993,0.035099c0.1758003,0.0415001,0.3523998,0.0812988,0.5305004,0.1165009    c0.0743008,0.0145988,0.1494999,0.0265007,0.2243004,0.0400009c0.1578999,0.0287018,0.3157997,0.0573006,0.4755993,0.0808983    c0.1009998,0.0149002,0.2033997,0.0259018,0.3052006,0.0387993c0.1366005,0.0173988,0.2730007,0.0360985,0.4106998,0.0498009    c0.1396008,0.0136986,0.2805004,0.0220985,0.4211006,0.0320015c0.1033001,0.0073013,0.2059002,0.0172997,0.3097992,0.0224991    c0.2471008,0.0121994,0.4958992,0.0189018,0.7460003,0.0189018c0.0009003,0,0.0018005-0.0000992,0.0025997-0.0000992    c0.2493,0,0.4970989-0.0066986,0.7433987-0.0187988c0.1052017-0.0051994,0.2090988-0.0153999,0.3137016-0.0228004    c0.1393013-0.0098,0.278801-0.0181007,0.4169006-0.0317001c0.1389008-0.0136986,0.2761993-0.0326004,0.4138985-0.0500984    c0.1006012-0.0126991,0.2019005-0.0236015,0.3019981-0.0383987c0.1603012-0.0237999,0.3190994-0.0523987,0.4779015-0.0812988    c0.0738983-0.013401,0.1483994-0.0251999,0.2218018-0.0396004c0.1787987-0.0353012,0.3557014-0.0751991,0.5321007-0.1169014    c0.0499992-0.0117989,0.1004982-0.0223999,0.1503983-0.0346985c0.1949997-0.0481987,0.3885002-0.1008987,0.5803986-0.1567001    c0.0279999-0.0080986,0.0564003-0.0157013,0.084301-0.0238991c0.2104988-0.0625992,0.4188995-0.1295013,0.6253014-0.2010002    c0.0069008-0.0023994,0.0136986-0.0046005,0.020401-0.0069008c1.9632988-0.6833992,3.7414017-1.7664986,5.2364006-3.151001    c0.0015984,0.0017014,0.0029984,0.0035019,0.0046005,0.0051003c0.2540016-0.235199,0.4987984-0.4799004,0.7360992-0.7321014    c-0.0015984-0.0017014-0.0031013-0.0035019-0.0046997-0.0051994c1.7235985-1.8325996,2.9911003-4.0987015,3.6166-6.615799    c0.0060005-0.0242996,0.0111008-0.0489998,0.0168991-0.0732994c0.0491982-0.2024994,0.0951996-0.4062996,0.1358986-0.6119003    c0.0107002-0.0537987,0.0189018-0.1082993,0.0290985-0.1623001c0.0334015-0.1791992,0.0658989-0.3586998,0.0928993-0.5401001    c0.0127983-0.0873985,0.0219994-0.1759987,0.0335007-0.2639008c0.0196991-0.1511993,0.0404015-0.3021011,0.0556984-0.4546013    c0.0133018-0.1346016,0.0210991-0.2706985,0.0307999-0.4062996c0.0078011-0.1092987,0.0185013-0.2178001,0.0241013-0.3277016    c0.0121994-0.2485008,0.0189018-0.4985008,0.0189018-0.7500992c0-0.2513008-0.0068016-0.5011005-0.0189018-0.7493992    c-0.0054016-0.1079006-0.0159988-0.2143993-0.0234985-0.3216991c-0.0098991-0.1375008-0.0178986-0.2754002-0.0313988-0.4118996    c-0.0147018-0.1483002-0.0349007-0.2950001-0.0540009-0.4419994c-0.0119019-0.0919991-0.0215988-0.1847-0.0351982-0.2761002    c-0.0261002-0.1758995-0.0575981-0.3500004-0.089901-0.5238991c-0.0110016-0.0592003-0.0201988-0.1189995-0.0317993-0.1779003    c-0.0395012-0.1991005-0.0839996-0.3964005-0.1313019-0.5925999c-0.0073013-0.0305996-0.0136986-0.0615005-0.0211983-0.0918999    c-0.0545006-0.2194004-0.1138-0.4368-0.1778984-0.6522999c-0.0014992-0.0049-0.0027008-0.0100002-0.0042-0.0149002    c-0.6705017-2.2446003-1.8568993-4.2686996-3.4201012-5.9356003c0.0015984-0.0016994,0.0029984-0.0035,0.0046005-0.0051994    C42.5107002,21.3617992,42.2658997,21.1170006,42.0121002,20.8815002z M28.1702003,18.4414005    c-1.2996006,1.1485004-2.4095993,2.8801003-3.2196007,5.0044003c-0.8945999-0.5172005-1.7271996-1.1296005-2.4818001-1.8262997    C24.0681,20.1427994,26.0144997,19.0389004,28.1702003,18.4414005z M21.7332001,22.3523998    c0.8673992,0.8055992,1.8304996,1.5086994,2.8703003,2.0916004c-0.6506996,2.0331993-1.0405998,4.3628998-1.0886002,6.846199    h-5.5044994C18.1380997,27.8428001,19.5286007,24.7140999,21.7332001,22.3523998z M18.0104008,32.3289986h5.5044994    c0.0482998,2.4942017,0.4414005,4.8334007,1.0970993,6.8728981c-1.0366001,0.5802002-1.9972992,1.2798996-2.862999,2.081501    C19.5354004,38.9197998,18.1385002,35.7845993,18.0104008,32.3289986z M22.4853992,42.0155983    c0.7530003-0.6930008,1.5834999-1.3017998,2.4754009-1.8163986c0.8092995,2.1124001,1.9150009,3.8348999,3.2094002,4.9786987    C26.0221004,44.5825005,24.0814991,43.4845009,22.4853992,42.0155983z M31.3507996,45.644001    c-2.2723007-0.3033981-4.2609005-2.5768013-5.4921989-5.9243011c1.6723995-0.8074989,3.5314007-1.2855988,5.4921989-1.3582001    V45.644001z M31.3507996,37.3227005c-2.0760994,0.0716019-4.0457993,0.5676994-5.8241005,1.4071999    c-0.5792007-1.8975983-0.9279003-4.0764008-0.9733009-6.400898h6.7975006v4.9936981H31.3507996z M31.3507996,31.2901993H24.553299    c0.0452003-2.3131008,0.3908005-4.4820004,0.9650002-6.3731003c1.7805004,0.8418999,3.7530994,1.3393002,5.8325005,1.4109993    V31.2901993z M31.3507996,25.2894001c-1.9647007-0.0727997-3.8271008-0.5529003-5.5022011-1.3633003    c1.2304993-3.3621006,3.2238007-5.6466007,5.5022011-5.9507999V25.2894001z M41.2719994,21.6194992    C40.5173988,22.3162994,39.6847,22.9286995,38.7898979,23.4459c-0.8101006-2.1243992-1.9199982-3.855999-3.219799-5.0044994    C37.7258987,19.0387993,39.6725998,20.1427994,41.2719994,21.6194992z M32.3895988,17.9752007    c2.2784996,0.3041992,4.271801,2.5888004,5.5023003,5.950901c-1.6750984,0.8104-3.5374985,1.2905006-5.5023003,1.3633003    V17.9752007z M32.3895988,26.3281994c2.0794983-0.0716991,4.0522003-0.5690994,5.8325996-1.4109993    c0.5741997,1.8910999,0.9196014,4.0599003,0.9650002,6.3729992h-6.7975998V26.3281994z M32.3895988,32.3289986h6.7975998    c-0.0453987,2.324398-0.3941994,4.5032005-0.9733009,6.4007988c-1.7783012-0.8395004-3.7480011-1.3356018-5.8242989-1.4071999    V32.3289986z M32.3895988,45.644001v-7.2825012c1.9608994,0.0727005,3.8199005,0.5507011,5.4925003,1.3582001    C36.6506004,43.0671005,34.6619987,45.3405991,32.3895988,45.644001z M35.5700989,45.1777992    c1.2944984-1.1437988,2.4003983-2.8662987,3.2094994-4.9788017c0.8921013,0.5145988,1.7226982,1.1235008,2.4757004,1.8165016    C39.6590996,43.4845009,37.718399,44.5825005,35.5700989,45.1777992z M41.9916992,41.2834015    c-0.865799-0.8017006-1.8264008-1.5013008-2.8632011-2.0816002c0.6557999-2.039402,1.0488014-4.3786011,1.0970993-6.8727989    h5.5047989C45.6022987,35.7845993,44.2055016,38.9197998,41.9916992,41.2834015z M45.7304001,31.2901993h-5.5047989    c-0.0480003-2.4832001-0.4378014-4.8129997-1.088501-6.8460999c1.0397987-0.5828991,2.0028-1.2861004,2.8703995-2.0916996    C44.2122002,24.7140999,45.6026993,27.8428001,45.7304001,31.2901993z"></path>
	</g>
</g>
</svg>
