<svg xmlns="http://www.w3.org/2000/svg" id="Layer_1" width="118" height="64" viewBox="0 0 118 64"><defs><style> .cls-1, .cls-2 { fill: none; } .cls-2 { stroke: #23009b; stroke-miterlimit: 10; stroke-width: 1.3px; } </style></defs><g><g><g><polyline class="cls-2" points="24.9540305 42.0614884 4.9796077 61.0258912 1.724055 57.7703385 20.6907391 37.7935129"></polyline><polyline class="cls-2" points="25.1314358 33.1163102 39.3023878 18.1906313 48.4294187 19.5947271 43.1638553 14.3291637 44.5593149 23.4475584 29.4497833 37.7930664"></polyline><path class="cls-2" d="M12.0496364,47.0113601c.8014842,1.6578462,2.0311189,2.8874809,3.6889652,3.6889652"></path></g><g><polygon class="cls-2" points="10.8467677 18.1992738 48.4251006 57.778981 45.1695478 61.0345337 5.5898406 23.4562009 6.9939364 14.3291701 1.7283731 19.5947334 10.8467677 18.1992738"></polygon><path class="cls-2" d="M34.4105694,50.7089523c1.6578462-.8014842,2.8874809-2.0311189,3.6889652-3.6889652"></path></g></g><g><path class="cls-2" d="M115.1093041,37.7866832c-1.4228664,0-2.5774077-1.115079-2.6984409-2.5313304-.4429425.3176796-.9802181.5078681-1.5632444.5078681-1.3956882,0-2.5327604-1.0730811-2.6904235-2.4505162-.2426548.0551738-.4940626.0866535-.7530464.0866535-1.9017401,0-3.4434332-1.5691209-3.4434332-3.5047319,0-.2837294.0367403-.5581758.0992612-.8223661-1.1880083-.2976913-2.0724959-1.3812531-2.0724959-2.6823284,0-.5274447.152735-1.0153245.404106-1.4350045-1.2962064-.2122356-2.2891494-1.346966-2.2891494-2.726123,0-.2976913.0581813-.5790251.1435775-.847782-8.7770952.0412867-15.8801369,7.2940541-15.8801369,16.2369578,0,8.9684693,7.1433125,16.2388668,15.955015,16.2388668,8.8117392,0,15.9550518-7.2703975,15.9550518-16.2388668,0-.0357843-.0024273-.0709698-.0026479-.1067167-.3540892.1715852-.7457278.2754196-1.1639929.2754196Z"></path><path class="cls-2" d="M98.696985,53.7736809c-2.8102686,4.3722106-7.6639359,7.2608529-13.1804886,7.2608529-8.6923883,0-15.7389612-7.1719368-15.7389612-16.0189693s7.046573-16.0189693,15.7389612-16.0189693c.4211897,0,.8385152.0168389,1.251362.0498913"></path><ellipse class="cls-2" cx="93.8515139" cy="32.9926941" rx="1.658002" ry="1.6874991"></ellipse><ellipse class="cls-2" cx="103.0515863" cy="47.2424648" rx="1.6843133" ry="1.7142785"></ellipse><ellipse class="cls-2" cx="96.6081631" cy="45.1750914" rx=".5908316" ry=".601343"></ellipse><ellipse class="cls-2" cx="91.4588056" cy="40.0390619" rx=".6256808" ry=".6368121"></ellipse><ellipse class="cls-2" cx="100.1024473" cy="38.1289721" rx=".5858109" ry=".596233"></ellipse><ellipse class="cls-2" cx="109.4048933" cy="41.4051516" rx=".7142509" ry=".726958"></ellipse><ellipse class="cls-2" cx="84.9624673" cy="54.5523012" rx="1.691369" ry="1.7214597"></ellipse><ellipse class="cls-2" cx="80.8865279" cy="48.9287171" rx=".8400273" ry=".854972"></ellipse><ellipse class="cls-2" cx="75.2446601" cy="45.1750914" rx=".8400273" ry=".854972"></ellipse><ellipse class="cls-2" cx="79.6698354" cy="38.3921917" rx="1.6913695" ry="1.7214602"></ellipse></g><g><rect class="cls-2" x="54.9940136" y="34.3649077" width="7.9018846" height="23.8509266"></rect><rect class="cls-2" x="54.9940155" y="34.3649036" width="7.9018962" height="3.5307752"></rect><rect class="cls-2" x="54.9940155" y="55.6971937" width="7.9018962" height="2.5186256"></rect><rect class="cls-2" x="57.8288469" y="37.8956788" width="2.2681617" height="17.8015149"></rect><path class="cls-2" d="M58.4009382,21.3810225h1.0834407c1.8828762,0,3.4115327,1.5286565,3.4115327,3.4115327v9.5723485h-7.9018962v-9.5769585c0-1.8803318,1.5265909-3.4069227,3.4069227-3.4069227Z"></path><rect class="cls-2" x="56.0990768" y="58.2158343" width="5.7284259" height="2.8186995"></rect><path class="cls-2" d="M54.9935287,41.2387822c.3048038.1638675.645962.2791587,1.0204183.3027805.7181985.0453245,1.0117681-.2811328,2.7002661-.9510205,1.417496-.562379,2.1416294-.8425668,2.8973652-.7924793.3145743.0208539.7588363.097038,1.28455.3540676"></path></g></g><rect class="cls-1" x="-.0385489" y=".0345337" width="118" height="64"></rect><rect class="cls-1" width="117.9614511" height="64.0345337"></rect></svg>