<svg xmlns="http://www.w3.org/2000/svg" id="Layer_1" width="118" height="64" viewBox="0 0 118 64"><defs><style> .cls-1, .cls-2 { fill: none; } .cls-2 { stroke: #23009b; stroke-miterlimit: 10; stroke-width: 1.3px; } </style></defs><g><g><path class="cls-2" d="M67.3540467,34.9908626l7.5819438-26.088672c1.1464289-.0728967,2.1821127-.8661573,2.5317198-2.0800452.4481919-1.5552798-.3981395-3.1952284-1.8902668-3.6624915s-3.065142.4147413-3.5133339,1.9704739c-.3555786,1.2347156.1122651,2.5124447,1.0629358,3.2246587"></path><line class="cls-2" x1="40.4123039" y1="34.990864" x2="77.5876961" y2="34.990864"></line><path class="cls-2" d="M40.4123039,54.5602388c0,3.5756544,2.7803336,6.4742949,6.2100489,6.4742949h24.7551858c3.4297753,0,6.2101575-2.8986912,6.2101575-6.4744081V18.197555h-37.1753922v36.3626838Z"></path></g><line class="cls-2" x1="40.4123039" y1="22.5372242" x2="48.4612181" y2="22.5372242"></line><line class="cls-2" x1="40.4123039" y1="28.6078002" x2="48.4612181" y2="28.6078002"></line></g><rect class="cls-1" width="117.9614511" height="64.0345337"></rect></svg>