<svg xmlns="http://www.w3.org/2000/svg" id="Layer_1" width="118" height="64" viewBox="0 0 118 64"><defs><style> .cls-1, .cls-2 { fill: none; } .cls-2 { stroke: #23009b; stroke-miterlimit: 10; stroke-width: 1.3px; } </style></defs><g><g><rect class="cls-2" x="34.4857293" y="10.5459623" width="39.0514266" height="22.9833917"></rect><polyline class="cls-2" points="77.1111915 29.9553185 77.1111915 6.9719268 38.0597649 6.9719268"></polyline><polyline class="cls-2" points="80.5357409 26.5307691 80.5357409 3.5473774 41.4843143 3.5473774"></polyline><circle class="cls-2" cx="54.0114427" cy="22.0376582" r="5.7966961"></circle><path class="cls-2" d="M73.537156,16.3426585c-3.2014269,0-5.7966961-2.5952693-5.7966961-5.7966961"></path><path class="cls-2" d="M67.7404598,33.529354c0-3.2014269,2.5952693-5.7966961,5.7966961-5.7966961"></path><path class="cls-2" d="M34.4857293,16.3426585c3.2014269,0,5.7966961-2.5952693,5.7966961-5.7966961"></path><path class="cls-2" d="M40.2824255,33.529354c0-3.2014269-2.5952693-5.7966961-5.7966961-5.7966961"></path></g><path class="cls-2" d="M61.6178067,48.8619343h-11.4389576c-2.1603395,0-3.9116408-1.7513013-3.9116408-3.9116408v-.0000078c0-2.1603395,1.7513012-3.9116408,3.9116407-3.9116408h7.3930232s5.7944966,0,5.7944966,0c2.8698643,0,5.6221864,1.1400492,7.6514869,3.1693497l16.8265392,16.8265392-2.972572-.0387143h-14.3623937l-4.9349836-4.9349836h-18.887672l-13.7624857-6.2138611c-2.3935953-1.0807254-3.4381594-3.9124422-2.3197658-6.2886707l.0000039-.0000083c1.0523437-2.2358935,3.6556934-3.2758769,5.9589273-2.380466l9.8159099,4.6935462"></path></g><rect class="cls-1" width="117.9614511" height="64.0345337"></rect></svg>