<?xml version="1.0" encoding="UTF-8"?>
<svg xmlns="http://www.w3.org/2000/svg" id="Layer_1" data-name="Layer 1" width="80" height="64" viewBox="0 0 80 64">
  <defs>
    <style>
      .cls-1 {
        stroke-width: 0px;
      }

      .cls-1, .cls-2 {
        fill: none;
      }

      .cls-2 {
        stroke: #000;
        stroke-miterlimit: 10;
        stroke-width: 2.25px;
      }
    </style>
  </defs>
  <g>
    <path class="cls-2" d="m50.6534201,10.2803945h8.3705463c1.4706496,0,2.6628467,1.1921971,2.6628467,2.6628467v45.3939122c0,1.4706496-1.1921971,2.6628467-2.6628467,2.6628467H20.9760336c-1.4706496,0-2.6628467-1.1921971-2.6628467-2.6628467V12.9432412c0-1.4706496,1.1921971-2.6628467,2.6628467-2.6628467h8.6843794"></path>
    <path class="cls-2" d="m48.4022716,6.6751583h-4.4935218c-.0461828-2.0363021-1.7041002-3.6751583-3.7518592-3.6751583s-3.7056257,1.6388562-3.7518085,3.6751583h-4.4935218c-1.2432859,0-2.251146,1.0082149-2.251146,2.2512474v4.4951947h20.9930032v-4.4951947c0-1.2430325-1.0079107-2.2512474-2.251146-2.2512474Z"></path>
    <polyline class="cls-2" points="24.4000462 24.7574379 27.6083137 27.9657054 32.1192704 22.488082"></polyline>
    <polyline class="cls-2" points="24.4000462 37.2161514 27.6083137 40.4244189 32.1192704 34.9467955"></polyline>
    <polyline class="cls-2" points="24.4000462 49.6748649 27.6083137 52.8831324 32.1192704 47.405509"></polyline>
    <line class="cls-2" x1="37.1356425" y1="24.4913235" x2="54.8063221" y2="24.4913235"></line>
    <line class="cls-2" x1="37.1356425" y1="36.950037" x2="54.8063221" y2="36.950037"></line>
    <line class="cls-2" x1="37.1356425" y1="50.2393314" x2="54.8063221" y2="50.2393314"></line>
  </g>
  <rect class="cls-1" x="-.0385489" y="0" width="80" height="64"></rect>
</svg>
