<?xml version="1.0" encoding="UTF-8"?>
<svg xmlns="http://www.w3.org/2000/svg" id="Layer_1" data-name="Layer 1" width="80" height="64" viewBox="0 0 80 64">
  <defs>
    <style>
      .cls-1 {
        stroke-width: 0px;
      }

      .cls-1, .cls-2 {
        fill: none;
      }

      .cls-2 {
        stroke: #000;
        stroke-miterlimit: 10;
        stroke-width: 2.25px;
      }
    </style>
  </defs>
  <g>
    <polyline class="cls-2" points="47.5300603 34.8377553 39.8916705 37.6882194 32.9217355 30.4627959"></polyline>
    <g>
      <line class="cls-2" x1="40.0000021" y1="19.3620486" x2="40.0000021" y2="21.8348632"></line>
      <line class="cls-2" x1="58.2692172" y1="37.6312637" x2="55.7963863" y2="37.6312637"></line>
      <line class="cls-2" x1="40.0000021" y1="55.9004789" x2="40.0000021" y2="53.427648"></line>
      <line class="cls-2" x1="21.730783" y1="37.6312637" x2="24.2035974" y2="37.6312637"></line>
    </g>
    <g>
      <line class="cls-2" x1="52.9182876" y1="24.7129783" x2="51.1697335" y2="26.4615323"></line>
      <line class="cls-2" x1="52.9182876" y1="50.5495492" x2="51.1697335" y2="48.8009952"></line>
      <line class="cls-2" x1="27.0817125" y1="50.5495492" x2="28.8302706" y2="48.8009952"></line>
      <line class="cls-2" x1="27.0817125" y1="24.7129783" x2="28.8302706" y2="26.4615323"></line>
    </g>
    <circle class="cls-2" cx="40.0000011" cy="37.5982521" r="23.7258881"></circle>
    <polyline class="cls-2" points="37.1325855 14.0482857 37.1325855 8.7277668 42.8450401 8.7277668 42.8450401 14.0482857"></polyline>
    <polyline class="cls-2" points="54.6247673 18.9183381 58.6051082 14.9379971 62.6444383 18.9773108 58.664081 22.9576681"></polyline>
    <rect class="cls-2" x="34.4670667" y="2.5" width="11.0658707" height="6.2277668"></rect>
  </g>
  <rect class="cls-1" x="-.0385489" y="0" width="80" height="64"></rect>
</svg>
