<svg xmlns="http://www.w3.org/2000/svg" id="Layer_1" width="118" height="64" viewBox="0 0 118 64"><defs><style> .cls-1, .cls-2 { fill: none; } .cls-2 { stroke: #23009b; stroke-miterlimit: 10; stroke-width: 1.3px; } </style></defs><g><g><polygon class="cls-2" points="59 36.4745497 45.0917399 45.0139178 31.1834799 36.4745497 45.0917399 27.9351816 59 36.4745497"></polygon><polyline class="cls-2" points="53.7941967 33.0788124 39.8859366 41.6181805 39.8859366 46.794485 35.9742254 44.6693452 35.9742254 39.4960999 49.8824854 30.9567318"></polyline><polyline class="cls-2" points="31.1834799 36.4745497 31.1834799 52.4951656 45.0917399 61.0345337 59 52.4951656 59 36.4745497"></polyline><line class="cls-2" x1="45.0917399" y1="45.0139178" x2="45.0917399" y2="61.0345337"></line></g><g><polygon class="cls-2" points="86.8165201 36.4745497 72.9082601 45.0139178 59 36.4745497 72.9082601 27.9351816 86.8165201 36.4745497"></polygon><polyline class="cls-2" points="81.6107168 33.0788124 67.7024568 41.6181805 67.7024568 46.794485 63.7907455 44.6693452 63.7907455 39.4960999 77.6990056 30.9567318"></polyline><polyline class="cls-2" points="59 36.4745497 59 52.4951656 72.9082601 61.0345337 86.8165201 52.4951656 86.8165201 36.4745497"></polyline><line class="cls-2" x1="72.9082601" y1="45.0139178" x2="72.9082601" y2="61.0345337"></line></g><g><polygon class="cls-2" points="72.9082601 11.9145657 59 20.4539338 45.0917399 11.9145657 59 3.3751975 72.9082601 11.9145657"></polygon><polyline class="cls-2" points="67.7024568 8.5188284 53.7941967 17.0581965 53.7941967 22.234501 49.8824854 20.1093611 49.8824854 14.9361159 63.7907455 6.3967478"></polyline><polyline class="cls-2" points="45.0917399 11.9145657 45.0917399 27.9351816 59 36.4745497 72.9082601 27.9351816 72.9082601 11.9145657"></polyline><line class="cls-2" x1="59" y1="20.4539338" x2="59" y2="36.4745497"></line></g></g><rect class="cls-1" width="117.9614511" height="64.0345337"></rect></svg>