<?xml version="1.0" encoding="UTF-8"?>
<!-- Generator: Adobe Illustrator 27.8.1, SVG Export Plug-In . SVG Version: 6.00 Build 0)  -->
<svg xmlns="http://www.w3.org/2000/svg" xmlns:xlink="http://www.w3.org/1999/xlink" version="1.1" id="Layer_1" x="0px" y="0px" viewBox="0 0 64 64" style="enable-background:new 0 0 64 64;" xml:space="preserve">
<style type="text/css">
	.st0{fill:#23009B;}
	.st1{fill:none;stroke:#000000;stroke-width:4;stroke-miterlimit:10;}
	.st2{fill:none;stroke:#000000;stroke-width:2.9392;stroke-miterlimit:10;}
	.st3{fill:#0E61FE;}
	.st4{fill:none;}
	.st5{fill:none;stroke:#23009B;stroke-width:1.3;stroke-miterlimit:10;}
	.st6{fill:none;stroke:#FF00FF;stroke-miterlimit:10;}
	.st7{fill:none;stroke:#23009B;stroke-width:1.3;stroke-linejoin:round;stroke-miterlimit:10;}
	.st8{fill:#FFFFFF;}
	.st9{clip-path:url(#SVGID_00000012467537948617406830000014703463669681336481_);}
</style>
<g id="Stacked_x5F_CMYK">
</g>
<g>
	<g>
		<path class="st3" d="M56.5306,14.1775c-1.8716-2.5716-4.1365-4.8364-6.7081-6.7081c-2.5465-1.8534-5.3914-3.3191-8.4508-4.3126    c-2.9521-0.9586-6.1-1.4831-9.3717-1.4831V32l9.3717,28.8431c3.0594-0.9935,5.9043-2.4591,8.4508-4.3126    c2.5717-1.8716,4.8364-4.1365,6.7081-6.7081c1.8534-2.5466,3.3192-5.3914,4.3126-8.4508c0.9586-2.9521,1.483-6.1,1.483-9.3717    s-0.5245-6.4196-1.4831-9.3717C59.8497,19.5689,58.384,16.724,56.5306,14.1775z"></path>
	</g>
	<g>
		<path d="M30.0979,32.618L30,32.3168V32V1.7535c-2.5555,0.1685-5.0272,0.642-7.3717,1.4033    c-3.0594,0.9935-5.9043,2.4592-8.4508,4.3126c-2.5716,1.8716-4.8364,4.1365-6.7081,6.7081    c-1.8534,2.5465-3.3191,5.3914-4.3126,8.4508c-0.9586,2.9521-1.4831,6.1-1.4831,9.3717s0.5244,6.4196,1.483,9.3717    c0.9935,3.0594,2.4592,5.9042,4.3126,8.4508c1.8716,2.5716,4.1364,4.8364,6.7081,6.7081    c2.5465,1.8535,5.3914,3.3191,8.4508,4.3126c2.9521,0.9586,6.1,1.4831,9.3717,1.4831c2.5715,0,5.0622-0.3343,7.4457-0.9385    L30.0979,32.618z"></path>
	</g>
</g>
<g>
	<circle class="st8" cx="32" cy="32" r="19.6856"></circle>
</g>
<g>
	<g>
		<path d="M21.8945,31.6816c-0.7676,0-1.3193,0.3838-1.4873,0.792l-1.5107-0.0723l0.5752-4.7852h5.3613v1.3916h-4.0059    l-0.2402,1.8584c0.3604-0.2637,0.9238-0.4795,1.7275-0.4795c1.4873,0,2.8662,1.0557,2.8662,3.0586    c0,1.9189-1.4873,3.0225-3.2744,3.0225c-2.0391,0-3.1182-1.3916-3.2139-2.8906h1.5586c0.0967,0.8994,0.6123,1.6426,1.6797,1.6426    c0.9111,0,1.5713-0.6592,1.5713-1.7627C23.502,32.2695,22.6982,31.6816,21.8945,31.6816z"></path>
	</g>
	<g>
		<path d="M29.3047,31.6816c-0.7676,0-1.3193,0.3838-1.4873,0.792l-1.5107-0.0723l0.5752-4.7852h5.3613v1.3916h-4.0059    l-0.2402,1.8584c0.3604-0.2637,0.9238-0.4795,1.7275-0.4795c1.4873,0,2.8662,1.0557,2.8662,3.0586    c0,1.9189-1.4873,3.0225-3.2744,3.0225c-2.0391,0-3.1182-1.3916-3.2139-2.8906h1.5586c0.0967,0.8994,0.6123,1.6426,1.6797,1.6426    c0.9111,0,1.5713-0.6592,1.5713-1.7627C30.9121,32.2695,30.1084,31.6816,29.3047,31.6816z"></path>
	</g>
	<g>
		<path d="M35.3408,27.5322c1.3799,0,2.1113,0.9473,2.1113,2.5186c0,1.583-0.7314,2.543-2.1113,2.543    c-1.3906,0-2.1348-0.96-2.1348-2.543C33.2061,28.4795,33.9502,27.5322,35.3408,27.5322z M35.3408,28.3838    c-0.5635,0-0.9473,0.4922-0.9473,1.667c0,1.1875,0.3838,1.7031,0.9473,1.7031c0.54,0,0.9355-0.5156,0.9355-1.7031    C36.2764,28.876,35.8809,28.3838,35.3408,28.3838z M41.4102,27.6162h1.7021l-6.0078,8.6953h-1.7031L41.4102,27.6162z     M43.1963,31.334c1.3799,0,2.1113,0.9473,2.1113,2.5186c0,1.583-0.7314,2.543-2.1113,2.543c-1.3906,0-2.1348-0.96-2.1348-2.543    C41.0615,32.2812,41.8057,31.334,43.1963,31.334z M43.1963,32.1855c-0.5635,0-0.9473,0.4922-0.9473,1.667    c0,1.1875,0.3838,1.7031,0.9473,1.7031c0.54,0,0.9355-0.5156,0.9355-1.7031C44.1318,32.6777,43.7363,32.1855,43.1963,32.1855z"></path>
	</g>
</g>
<g>
	<g>
		<rect x="-0.0385" y="0" class="st4" width="64" height="64"></rect>
	</g>
</g>
</svg>
